<svg width="9" height="9" viewBox="0 0 9 9" fill="none" xmlns="http://www.w3.org/2000/svg">
<path fill-rule="evenodd" clip-rule="evenodd" d="M9.00061 0.375712C9.00061 0.276261 8.9611 0.180883 8.89078 0.110561C8.82046 0.0402393 8.72508 0.000732422 8.62563 0.000732422H4.12587C4.02642 0.000732422 3.93104 0.0402393 3.86072 0.110561C3.79039 0.180883 3.75089 0.276261 3.75089 0.375712C3.75089 0.475163 3.79039 0.570541 3.86072 0.640864C3.93104 0.711186 4.02642 0.750693 4.12587 0.750693H7.72043L0.110578 8.35979C0.0401669 8.4302 0.000610352 8.5257 0.000610352 8.62528C0.000610352 8.72486 0.0401669 8.82035 0.110578 8.89076C0.180989 8.96118 0.276487 9.00073 0.376064 9.00073C0.47564 9.00073 0.571139 8.96118 0.64155 8.89076L8.25065 1.28091V4.87548C8.25065 4.97493 8.29016 5.0703 8.36048 5.14063C8.4308 5.21095 8.52618 5.25046 8.62563 5.25046C8.72508 5.25046 8.82046 5.21095 8.89078 5.14063C8.9611 5.0703 9.00061 4.97493 9.00061 4.87548V0.375712Z" fill="#0993EC"/>
</svg>
