<svg width="20" height="16" viewBox="0 0 20 16" fill="none" xmlns="http://www.w3.org/2000/svg">
<path d="M19.824 14.2514L11.0494 0.557704C10.8276 0.21162 10.4295 0 9.99997 0C9.57048 0 9.17231 0.211583 8.95056 0.557704L0.176014 14.2514C-0.0521895 14.6076 -0.0589473 15.0518 0.158397 15.4139C0.375741 15.7761 0.783437 16 1.22539 16H18.7746C19.2165 16 19.6242 15.776 19.8416 15.4139C20.0589 15.0518 20.0522 14.6076 19.824 14.2514ZM10.0065 4.73681C10.5105 4.73681 10.9369 5.00434 10.9369 5.47853C10.9369 6.92547 10.756 9.00476 10.756 10.4517C10.756 10.8287 10.3167 10.9867 10.0065 10.9867C9.59309 10.9867 9.24419 10.8286 9.24419 10.4517C9.24419 9.00476 9.06333 6.92547 9.06333 5.47853C9.06333 5.00434 9.47677 4.73681 10.0065 4.73681ZM10.0195 13.6983C9.45095 13.6983 9.0245 13.2606 9.0245 12.762C9.0245 12.2513 9.45091 11.8258 10.0195 11.8258C10.5492 11.8258 11.0015 12.2513 11.0015 12.762C11.0015 13.2606 10.5492 13.6983 10.0195 13.6983Z" fill="#FF3838"/>
</svg>
