<svg width="18" height="16" viewBox="0 0 18 16" fill="none" xmlns="http://www.w3.org/2000/svg">
<path d="M8.13523 5.6H9.81494V4H8.13523V5.6ZM8.97508 14.4C5.27131 14.4 2.25622 11.528 2.25622 8C2.25622 4.472 5.27131 1.6 8.97508 1.6C12.6789 1.6 15.6939 4.472 15.6939 8C15.6939 11.528 12.6789 14.4 8.97508 14.4ZM8.97508 0C7.87217 0 6.78005 0.206926 5.76109 0.608964C4.74213 1.011 3.81627 1.60028 3.03639 2.34315C1.46136 3.84344 0.576508 5.87827 0.576508 8C0.576508 10.1217 1.46136 12.1566 3.03639 13.6569C3.81627 14.3997 4.74213 14.989 5.76109 15.391C6.78005 15.7931 7.87217 16 8.97508 16C11.2025 16 13.3387 15.1571 14.9138 13.6569C16.4888 12.1566 17.3737 10.1217 17.3737 8C17.3737 6.94943 17.1564 5.90914 16.7344 4.93853C16.3123 3.96793 15.6937 3.08601 14.9138 2.34315C14.1339 1.60028 13.208 1.011 12.1891 0.608964C11.1701 0.206926 10.078 0 8.97508 0ZM8.13523 12H9.81494V7.2H8.13523V12Z" fill="#E5E5E5"/>
</svg>
