<svg width="10" height="14" viewBox="0 0 10 14" fill="none" xmlns="http://www.w3.org/2000/svg">
<path d="M1.15138 6.33331H8.84938C9.42404 6.33331 9.72938 5.65331 9.34738 5.22331L5.49871 0.893315C5.43628 0.822851 5.35961 0.766438 5.27377 0.727803C5.18792 0.689167 5.09485 0.669189 5.00071 0.669189C4.90657 0.669189 4.8135 0.689167 4.72766 0.727803C4.64181 0.766438 4.56514 0.822851 4.50271 0.893315L0.652711 5.22331C0.270711 5.65331 0.576044 6.33331 1.15138 6.33331ZM4.50204 13.106C4.56447 13.1764 4.64114 13.2329 4.72699 13.2715C4.81284 13.3101 4.9059 13.3301 5.00004 13.3301C5.09418 13.3301 5.18725 13.3101 5.2731 13.2715C5.35895 13.2329 5.43562 13.1764 5.49804 13.106L9.34671 8.77598C9.72938 8.34665 9.42405 7.66665 8.84871 7.66665H1.15138C0.576711 7.66665 0.271377 8.34665 0.653377 8.77665L4.50204 13.106Z" fill="#BFBFBF"/>
</svg>
