<svg width="12" height="10" viewBox="0 0 12 10" fill="none" xmlns="http://www.w3.org/2000/svg">
<path d="M11.071 1.56756C10.6638 1.74797 10.2265 1.86986 9.7667 1.92496C10.2411 1.64109 10.596 1.19431 10.7653 0.66798C10.3195 0.932731 9.83172 1.11909 9.32301 1.21895C8.98091 0.853682 8.52779 0.61158 8.03401 0.530226C7.54022 0.448873 7.03338 0.532819 6.59219 0.769032C6.151 1.00525 5.80014 1.38051 5.59407 1.83656C5.38801 2.29262 5.33828 2.80394 5.4526 3.29116C4.54945 3.24581 3.66593 3.01107 2.85937 2.60216C2.05282 2.19326 1.34125 1.61933 0.770863 0.917621C0.575831 1.25405 0.463688 1.64411 0.463688 2.05953C0.46347 2.4335 0.555564 2.80175 0.731798 3.13159C0.908031 3.46143 1.16296 3.74268 1.47395 3.95037C1.11328 3.93889 0.760562 3.84143 0.44516 3.66611V3.69536C0.445124 4.21987 0.626556 4.72824 0.95867 5.13421C1.29079 5.54017 1.75313 5.81874 2.26724 5.92263C1.93266 6.01318 1.58187 6.02651 1.24138 5.96163C1.38643 6.41294 1.66898 6.80759 2.04948 7.09034C2.42997 7.37309 2.88936 7.52977 3.36332 7.53846C2.55874 8.17008 1.56508 8.51269 0.542188 8.51118C0.360995 8.51123 0.179954 8.50065 0 8.47949C1.03829 9.14707 2.24693 9.50137 3.48132 9.5C7.65987 9.5 9.94418 6.03916 9.94418 3.03762C9.94418 2.9401 9.94175 2.84161 9.93736 2.74409C10.3817 2.42277 10.7652 2.02486 11.07 1.56903L11.071 1.56756Z" fill="white"/>
</svg>
