<svg width="10" height="10" viewBox="0 0 10 10" fill="none" xmlns="http://www.w3.org/2000/svg">
<path fill-rule="evenodd" clip-rule="evenodd" d="M3.11042 0.444187C3.59917 0.421687 3.755 0.416687 5 0.416687C6.245 0.416687 6.40083 0.422104 6.88917 0.444187C7.3775 0.46627 7.71083 0.544187 8.0025 0.657104C8.30792 0.77252 8.585 0.952937 8.81417 1.18627C9.0475 1.41502 9.2275 1.69169 9.3425 1.99752C9.45583 2.28919 9.53333 2.62252 9.55583 3.11002C9.57833 3.5996 9.58333 3.75544 9.58333 5.00002C9.58333 6.24502 9.57792 6.40085 9.55583 6.8896C9.53375 7.3771 9.45583 7.71044 9.3425 8.0021C9.2275 8.30798 9.0472 8.5851 8.81417 8.81419C8.585 9.04752 8.30792 9.22752 8.0025 9.34252C7.71083 9.45585 7.3775 9.53335 6.89 9.55585C6.40083 9.57835 6.245 9.58335 5 9.58335C3.755 9.58335 3.59917 9.57794 3.11042 9.55585C2.62292 9.53377 2.28958 9.45585 1.99792 9.34252C1.69205 9.2275 1.41492 9.04721 1.18583 8.81419C0.952658 8.5853 0.772214 8.30831 0.657083 8.00252C0.544166 7.71085 0.466666 7.37752 0.444166 6.89002C0.421666 6.40044 0.416666 6.2446 0.416666 5.00002C0.416666 3.75502 0.422083 3.59919 0.444166 3.11085C0.466249 2.62252 0.544166 2.28919 0.657083 1.99752C0.772384 1.69172 0.952965 1.41473 1.18625 1.18585C1.41502 0.952729 1.69186 0.772288 1.9975 0.657104C2.28917 0.544187 2.6225 0.466687 3.11 0.444187H3.11042ZM6.85208 1.26919C6.36875 1.2471 6.22375 1.24252 5 1.24252C3.77625 1.24252 3.63125 1.2471 3.14792 1.26919C2.70083 1.2896 2.45833 1.36419 2.29667 1.4271C2.08292 1.51044 1.93 1.60919 1.76958 1.7696C1.61752 1.91754 1.50049 2.09764 1.42708 2.29669C1.36417 2.45835 1.28958 2.70085 1.26917 3.14794C1.24708 3.63127 1.2425 3.77627 1.2425 5.00002C1.2425 6.22377 1.24708 6.36877 1.26917 6.8521C1.28958 7.29919 1.36417 7.54169 1.42708 7.70335C1.50042 7.9021 1.6175 8.08252 1.76958 8.23044C1.9175 8.38252 2.09792 8.4996 2.29667 8.57294C2.45833 8.63585 2.70083 8.71044 3.14792 8.73085C3.63125 8.75294 3.77583 8.75752 5 8.75752C6.22417 8.75752 6.36875 8.75294 6.85208 8.73085C7.29917 8.71044 7.54167 8.63585 7.70333 8.57294C7.91708 8.4896 8.07 8.39085 8.23042 8.23044C8.3825 8.08252 8.49958 7.9021 8.57292 7.70335C8.63583 7.54169 8.71042 7.29919 8.73083 6.8521C8.75292 6.36877 8.7575 6.22377 8.7575 5.00002C8.7575 3.77627 8.75292 3.63127 8.73083 3.14794C8.71042 2.70085 8.63583 2.45835 8.57292 2.29669C8.48958 2.08294 8.39083 1.93002 8.23042 1.7696C8.08247 1.61755 7.90238 1.50052 7.70333 1.4271C7.54167 1.36419 7.29917 1.2896 6.85208 1.26919ZM4.41458 6.41294C4.74152 6.54903 5.10557 6.5674 5.44455 6.4649C5.78353 6.36241 6.07641 6.1454 6.27317 5.85095C6.46993 5.55651 6.55836 5.20288 6.52335 4.85048C6.48835 4.49808 6.33208 4.16876 6.08125 3.91877C5.92135 3.75897 5.728 3.63661 5.51514 3.5605C5.30227 3.48439 5.07518 3.45642 4.85021 3.47861C4.62523 3.5008 4.40798 3.57259 4.21408 3.68882C4.02019 3.80505 3.85448 3.96283 3.72888 4.15079C3.60327 4.33875 3.52091 4.55222 3.48771 4.77584C3.45452 4.99945 3.47131 5.22764 3.53689 5.44398C3.60247 5.66033 3.7152 5.85944 3.86697 6.02699C4.01873 6.19453 4.20576 6.32635 4.41458 6.41294ZM3.33417 3.33419C3.55293 3.11543 3.81263 2.9419 4.09846 2.8235C4.38428 2.70511 4.69063 2.64418 5 2.64418C5.30937 2.64418 5.61572 2.70511 5.90154 2.8235C6.18737 2.9419 6.44707 3.11543 6.66583 3.33419C6.88459 3.55295 7.05812 3.81265 7.17651 4.09848C7.29491 4.3843 7.35584 4.69065 7.35584 5.00002C7.35584 5.30939 7.29491 5.61574 7.17651 5.90156C7.05812 6.18739 6.88459 6.44709 6.66583 6.66585C6.22403 7.10766 5.62481 7.35586 5 7.35586C4.37519 7.35586 3.77597 7.10766 3.33417 6.66585C2.89236 6.22405 2.64416 5.62483 2.64416 5.00002C2.64416 4.37521 2.89236 3.77599 3.33417 3.33419ZM7.87833 2.99502C7.93254 2.94388 7.97594 2.88239 8.00596 2.81418C8.03598 2.74596 8.052 2.67242 8.05309 2.59791C8.05418 2.52339 8.0403 2.44941 8.01228 2.38036C7.98427 2.3113 7.94268 2.24857 7.88998 2.19587C7.83729 2.14317 7.77455 2.10159 7.70549 2.07357C7.63644 2.04555 7.56246 2.03168 7.48794 2.03276C7.41343 2.03385 7.33989 2.04988 7.27168 2.07989C7.20346 2.10991 7.14197 2.15331 7.09083 2.20752C6.99138 2.31295 6.93693 2.45299 6.93904 2.59791C6.94115 2.74283 6.99966 2.88122 7.10215 2.9837C7.20463 3.08619 7.34302 3.1447 7.48794 3.14681C7.63286 3.14892 7.7729 3.09447 7.87833 2.99502Z" fill="white"/>
</svg>
