<svg width="91" height="88" viewBox="0 0 91 88" fill="none" xmlns="http://www.w3.org/2000/svg">
<path d="M33.9198 37.4462L30.2598 45.8462H28.7238L25.0518 37.4462H26.7438L29.5398 43.9262L32.3598 37.4462H33.9198ZM34.7208 39.4382H36.2208V45.8462H34.7208V39.4382ZM35.4768 38.3822C35.2048 38.3822 34.9768 38.2982 34.7928 38.1302C34.6088 37.9542 34.5168 37.7382 34.5168 37.4822C34.5168 37.2262 34.6088 37.0142 34.7928 36.8462C34.9768 36.6702 35.2048 36.5822 35.4768 36.5822C35.7488 36.5822 35.9768 36.6662 36.1608 36.8342C36.3448 36.9942 36.4368 37.1982 36.4368 37.4462C36.4368 37.7102 36.3448 37.9342 36.1608 38.1182C35.9848 38.2942 35.7568 38.3822 35.4768 38.3822ZM44.2136 42.6782C44.2136 42.7822 44.2056 42.9302 44.1896 43.1222H39.1616C39.2496 43.5942 39.4776 43.9702 39.8456 44.2502C40.2216 44.5222 40.6856 44.6582 41.2376 44.6582C41.9416 44.6582 42.5216 44.4262 42.9776 43.9622L43.7816 44.8862C43.4936 45.2302 43.1296 45.4902 42.6896 45.6662C42.2496 45.8422 41.7536 45.9302 41.2016 45.9302C40.4976 45.9302 39.8776 45.7902 39.3416 45.5102C38.8056 45.2302 38.3896 44.8422 38.0936 44.3462C37.8056 43.8422 37.6616 43.2742 37.6616 42.6422C37.6616 42.0182 37.8016 41.4582 38.0816 40.9622C38.3696 40.4582 38.7656 40.0662 39.2696 39.7862C39.7736 39.5062 40.3416 39.3662 40.9736 39.3662C41.5976 39.3662 42.1536 39.5062 42.6416 39.7862C43.1376 40.0582 43.5216 40.4462 43.7936 40.9502C44.0736 41.4462 44.2136 42.0222 44.2136 42.6782ZM40.9736 40.5662C40.4936 40.5662 40.0856 40.7102 39.7496 40.9982C39.4216 41.2782 39.2216 41.6542 39.1496 42.1262H42.7856C42.7216 41.6622 42.5256 41.2862 42.1976 40.9982C41.8696 40.7102 41.4616 40.5662 40.9736 40.5662ZM55.5332 39.4382L53.1692 45.8462H51.7292L50.0732 41.4302L48.3932 45.8462H46.9532L44.6012 39.4382H46.0172L47.7092 44.1662L49.4732 39.4382H50.7332L52.4612 44.1902L54.2012 39.4382H55.5332ZM22.6234 58.9022H18.4234L17.5954 60.8462H15.9874L19.7674 52.4462H21.3034L25.0954 60.8462H23.4634L22.6234 58.9022ZM22.1074 57.6782L20.5234 54.0062L18.9514 57.6782H22.1074ZM32.1065 54.4382V60.8462H30.6785V60.0302C30.4385 60.3182 30.1385 60.5422 29.7785 60.7022C29.4185 60.8542 29.0305 60.9302 28.6145 60.9302C27.7585 60.9302 27.0825 60.6942 26.5865 60.2222C26.0985 59.7422 25.8545 59.0342 25.8545 58.0982V54.4382H27.3545V57.8942C27.3545 58.4702 27.4825 58.9022 27.7385 59.1902C28.0025 59.4702 28.3745 59.6102 28.8545 59.6102C29.3905 59.6102 29.8145 59.4462 30.1265 59.1182C30.4465 58.7822 30.6065 58.3022 30.6065 57.6782V54.4382H32.1065ZM37.0104 60.9302C36.3464 60.9302 35.7504 60.7902 35.2224 60.5102C34.6944 60.2302 34.2824 59.8422 33.9864 59.3462C33.6904 58.8422 33.5424 58.2742 33.5424 57.6422C33.5424 57.0102 33.6904 56.4462 33.9864 55.9502C34.2824 55.4542 34.6904 55.0662 35.2104 54.7862C35.7384 54.5062 36.3384 54.3662 37.0104 54.3662C37.6424 54.3662 38.1944 54.4942 38.6664 54.7502C39.1464 55.0062 39.5064 55.3742 39.7464 55.8542L38.5944 56.5262C38.4104 56.2302 38.1784 56.0102 37.8984 55.8662C37.6264 55.7142 37.3264 55.6382 36.9984 55.6382C36.4384 55.6382 35.9744 55.8222 35.6064 56.1902C35.2384 56.5502 35.0544 57.0342 35.0544 57.6422C35.0544 58.2502 35.2344 58.7382 35.5944 59.1062C35.9624 59.4662 36.4304 59.6462 36.9984 59.6462C37.3264 59.6462 37.6264 59.5742 37.8984 59.4302C38.1784 59.2782 38.4104 59.0542 38.5944 58.7582L39.7464 59.4302C39.4984 59.9102 39.1344 60.2822 38.6544 60.5462C38.1824 60.8022 37.6344 60.9302 37.0104 60.9302ZM44.9771 60.4982C44.8011 60.6422 44.5851 60.7502 44.3291 60.8222C44.0811 60.8942 43.8171 60.9302 43.5371 60.9302C42.8331 60.9302 42.2891 60.7462 41.9051 60.3782C41.5211 60.0102 41.3291 59.4742 41.3291 58.7702V55.6862H40.2731V54.4862H41.3291V53.0222H42.8291V54.4862H44.5451V55.6862H42.8291V58.7342C42.8291 59.0462 42.9051 59.2862 43.0571 59.4542C43.2091 59.6142 43.4291 59.6942 43.7171 59.6942C44.0531 59.6942 44.3331 59.6062 44.5571 59.4302L44.9771 60.4982ZM46.2111 54.4382H47.7111V60.8462H46.2111V54.4382ZM46.9671 53.3822C46.6951 53.3822 46.4671 53.2982 46.2831 53.1302C46.0991 52.9542 46.0071 52.7382 46.0071 52.4822C46.0071 52.2262 46.0991 52.0142 46.2831 51.8462C46.4671 51.6702 46.6951 51.5822 46.9671 51.5822C47.2391 51.5822 47.4671 51.6662 47.6511 51.8342C47.8351 51.9942 47.9271 52.1982 47.9271 52.4462C47.9271 52.7102 47.8351 52.9342 47.6511 53.1182C47.4751 53.2942 47.2471 53.3822 46.9671 53.3822ZM52.5598 60.9302C51.9118 60.9302 51.3278 60.7902 50.8078 60.5102C50.2878 60.2302 49.8798 59.8422 49.5838 59.3462C49.2958 58.8422 49.1518 58.2742 49.1518 57.6422C49.1518 57.0102 49.2958 56.4462 49.5838 55.9502C49.8798 55.4542 50.2878 55.0662 50.8078 54.7862C51.3278 54.5062 51.9118 54.3662 52.5598 54.3662C53.2158 54.3662 53.8038 54.5062 54.3238 54.7862C54.8438 55.0662 55.2478 55.4542 55.5358 55.9502C55.8318 56.4462 55.9798 57.0102 55.9798 57.6422C55.9798 58.2742 55.8318 58.8422 55.5358 59.3462C55.2478 59.8422 54.8438 60.2302 54.3238 60.5102C53.8038 60.7902 53.2158 60.9302 52.5598 60.9302ZM52.5598 59.6462C53.1118 59.6462 53.5678 59.4622 53.9278 59.0942C54.2878 58.7262 54.4678 58.2422 54.4678 57.6422C54.4678 57.0422 54.2878 56.5582 53.9278 56.1902C53.5678 55.8222 53.1118 55.6382 52.5598 55.6382C52.0078 55.6382 51.5518 55.8222 51.1918 56.1902C50.8398 56.5582 50.6638 57.0422 50.6638 57.6422C50.6638 58.2422 50.8398 58.7262 51.1918 59.0942C51.5518 59.4622 52.0078 59.6462 52.5598 59.6462ZM61.0502 54.3662C61.8582 54.3662 62.5062 54.6022 62.9942 55.0742C63.4822 55.5462 63.7262 56.2462 63.7262 57.1742V60.8462H62.2262V57.3662C62.2262 56.8062 62.0942 56.3862 61.8302 56.1062C61.5662 55.8182 61.1902 55.6742 60.7022 55.6742C60.1502 55.6742 59.7142 55.8422 59.3942 56.1782C59.0742 56.5062 58.9142 56.9822 58.9142 57.6062V60.8462H57.4142V54.4382H58.8422V55.2662C59.0902 54.9702 59.4022 54.7462 59.7782 54.5942C60.1542 54.4422 60.5782 54.3662 61.0502 54.3662Z" fill="white" fill-opacity="0.8"/>
<circle cx="38.9231" cy="49.0769" r="37.9231" stroke="white" stroke-opacity="0.4" stroke-width="2"/>
<path fill-rule="evenodd" clip-rule="evenodd" d="M57.562 32.496C57.3746 32.3086 57.2694 32.0545 57.2694 31.7895C57.2694 31.5246 57.3746 31.2705 57.562 31.0831L74.2239 14.4212L65.3327 14.4226C65.0674 14.4226 64.813 14.3172 64.6254 14.1297C64.4378 13.9421 64.3324 13.6876 64.3324 13.4223C64.3324 13.157 64.4378 12.9026 64.6254 12.715C64.813 12.5274 65.0674 12.422 65.3327 12.422L76.6356 12.422C76.7671 12.4219 76.8972 12.4476 77.0186 12.4978C77.1401 12.548 77.2504 12.6217 77.3433 12.7146C77.4363 12.8076 77.5099 12.9179 77.5601 13.0393C77.6104 13.1608 77.6361 13.2909 77.6359 13.4223L77.6359 24.7252C77.6359 24.9905 77.5306 25.245 77.343 25.4325C77.1554 25.6201 76.9009 25.7255 76.6356 25.7255C76.3703 25.7255 76.1159 25.6201 75.9283 25.4325C75.7407 25.245 75.6353 24.9905 75.6353 24.7252L75.6367 15.8341L58.9749 32.496C58.7875 32.6833 58.5334 32.7886 58.2684 32.7886C58.0035 32.7886 57.7494 32.6833 57.562 32.496Z" fill="white" fill-opacity="0.9"/>
</svg>
