<svg width="129" height="37" viewBox="0 0 129 37" fill="none" xmlns="http://www.w3.org/2000/svg">
<path d="M0.812866 29.6496H13.1814V28.6134H11.5627C9.48742 28.6134 8.65732 27.7845 8.65732 25.7121V20.1801C8.65732 17.5274 9.89759 15.9938 12.0974 15.9938C15.0393 15.9938 16.0355 18.232 16.243 22.211H17.0731V9.19641H16.243C16.0355 12.9267 15.0393 15.0405 12.0974 15.0405C9.89759 15.0405 8.65732 13.5899 8.65732 11.6004V4.57377C8.65732 2.50138 9.44592 1.67243 11.5212 1.67243H15.1736C20.6108 1.67243 22.6445 4.32508 23.3916 9.83763H24.2217V0.63623H0.812866V1.67243H2.43156C4.50682 1.67243 5.33692 2.50138 5.33692 4.57377V25.7121C5.33692 27.7845 4.50682 28.6134 2.43156 28.6134H0.812866V29.6496Z" fill="#F7F7F7"/>
<path d="M23.3443 15.0186H24.3819C25.461 13.3607 26.7477 11.9515 27.6608 11.9515C27.9513 11.9515 28.0344 12.2001 28.0344 12.4074C28.0344 12.5317 27.9928 12.739 27.9098 12.9462L23.7593 23.5568C22.8047 25.9608 23.4688 30.147 25.7516 30.147C26.7062 30.147 28.5739 29.0279 30.5662 25.0904H29.57C28.4909 27.1213 26.9137 29.1108 25.9176 29.1108C25.5856 29.1108 25.3365 28.9036 25.3365 28.5306C25.3365 28.2819 25.4195 28.0332 25.5856 27.5358L29.6946 16.4278C29.9436 15.7232 30.1096 14.9771 30.1096 14.2311C30.1096 12.4903 29.404 10.9153 28.0344 10.9153C26.5817 10.9153 25.0045 12.4074 23.3443 15.0186ZM28.989 5.69285C28.989 6.6876 29.8191 7.59945 30.9397 7.59945C32.2264 7.59945 33.3055 6.64615 33.3055 5.44417C33.3055 4.44942 32.4754 3.53757 31.3133 3.53757C30.0681 3.53757 28.989 4.49087 28.989 5.69285Z" fill="#F7F7F7"/>
<path d="M40.3331 36.3642C42.865 36.3642 44.7742 35.8254 46.1854 34.9135C48.1776 33.6286 49.0492 31.9707 49.0492 30.52C49.0492 28.3648 47.057 26.5411 43.6951 26.5411H36.4317C35.2695 26.5411 35.062 26.168 35.062 25.6707C35.062 25.2147 35.6431 24.3443 36.6807 23.6812C38.0089 24.1371 39.088 24.3858 40.2086 24.3858C44.1931 24.3858 47.8041 20.3653 47.8041 17.6712C47.8041 16.5522 47.0155 15.3502 46.3514 14.3554C46.1854 14.0653 46.1024 13.8166 46.1024 13.5679C46.1024 12.6561 47.0155 12.0344 47.5965 12.0344C47.8456 12.0344 48.0531 12.1587 48.0531 12.4074C48.0531 12.7804 47.638 12.8633 47.638 13.6094C47.638 14.3554 48.3851 14.8942 49.1322 14.8942C50.0038 14.8942 50.9584 14.2725 50.9584 12.9462C50.9584 11.6613 49.7963 10.8738 48.5927 10.8738C47.0155 10.8738 45.9363 12.0758 44.6912 12.0758C43.612 12.0758 42.2424 10.9153 40.2086 10.9153C36.3487 10.9153 32.5717 15.1844 32.5717 17.6298C32.5717 19.0805 33.7338 20.614 34.6885 21.6917C35.2695 22.3134 35.3525 22.6035 35.3525 23.018C35.3525 23.391 35.1865 23.7641 34.6885 24.2614L33.9414 25.0489C33.2358 25.7536 33.0698 26.0437 33.0698 26.7069C33.0698 27.2457 33.4433 27.743 33.9829 28.4062C34.1904 28.6963 34.3149 28.945 34.3149 29.1937C34.3149 29.4838 34.1904 29.774 33.8584 30.0641L32.8207 31.0174C32.1982 31.5562 32.0321 31.9707 32.0321 32.4681C32.0321 33.6701 34.4809 36.3642 40.3331 36.3642ZM34.4809 32.2194C34.4809 31.5562 34.813 30.3957 35.3525 29.6496H43.3215C45.6873 29.6496 46.6419 30.6444 46.6419 31.9707C46.6419 33.3799 45.1062 35.328 40.4577 35.328C35.6431 35.328 34.4809 33.7944 34.4809 32.2194ZM36.0996 19.3292V16.0962C36.0996 13.2778 37.9258 11.9515 40.1671 11.9515C42.4084 11.9515 44.2761 13.2778 44.2761 16.0962V19.3292C44.2761 21.9818 42.4084 23.3496 40.2086 23.3496C38.0089 23.3496 36.0996 21.8989 36.0996 19.3292Z" fill="#F7F7F7"/>
<path d="M59.1787 30.147C63.0802 30.147 65.4045 27.1628 65.4045 24.7588C65.4045 21.2772 62.7482 19.868 60.1333 19.039L57.6845 18.2515C55.7753 17.6298 54.2811 17.1324 54.2811 14.8942C54.2811 13.1949 55.6923 11.9515 57.7676 11.9515C60.2579 11.9515 62.9142 13.5679 63.6198 17.4226H64.4499V11.4126H63.6198C63.5368 11.9929 63.2462 12.4488 62.5821 12.4488C61.6275 12.4488 60.2579 10.9153 57.7676 10.9153C54.5302 10.9153 52.5379 13.5265 52.5379 16.0548C52.5379 18.9561 53.9906 20.4068 56.979 21.3601L59.5523 22.189C62.1671 23.018 63.4537 23.9299 63.4537 25.8364C63.4537 27.5358 62.2086 29.1108 59.1787 29.1108C55.3603 29.1108 53.036 26.0851 52.5794 22.5206H51.7493V29.6496H52.6209C52.7454 29.0279 52.9945 28.3648 53.7831 28.3648C54.8207 28.3648 56.1489 30.147 59.1787 30.147Z" fill="#F7F7F7"/>
<path d="M70.9333 30.147C72.718 30.147 74.3367 29.1937 76.08 27.7016C76.744 29.2352 77.9062 30.147 79.7324 30.147C85.6261 30.147 91.0633 21.5673 91.0633 15.1015C91.0633 12.8633 89.8596 10.9567 87.9504 10.9567C86.6637 10.9567 85.2111 12.1587 85.2111 13.6923C85.2111 14.8114 86.0827 15.889 87.1203 15.889C88.6145 15.889 88.573 14.9771 89.2786 14.9771C89.6106 14.9771 89.8596 15.1844 89.8596 15.889C89.8596 20.6555 85.7921 28.1575 81.0191 28.1575C79.4834 28.1575 78.4042 27.5358 77.7402 26.1266C81.0606 22.4792 83.5509 17.4226 83.5509 13.8166C83.5509 12.1173 82.7623 10.9153 81.2681 10.9153C77.4911 10.9153 75.4159 18.666 75.4159 23.6397C75.4159 24.7588 75.4989 25.795 75.7479 26.6654C74.1707 28.2819 72.7596 29.1108 71.1409 29.1108C69.8957 29.1108 69.2316 28.4062 69.2316 27.2457C69.2316 26.6654 69.4391 25.9608 69.7712 25.1733L72.8011 17.5055C73.2161 16.4278 73.5481 15.1429 73.5481 14.0238C73.5481 12.3245 72.9256 10.9153 71.4314 10.9153C70.4353 10.9153 68.4845 12.0344 66.2433 15.9719H67.2394C68.4845 13.941 70.1447 11.9515 71.1409 11.9515C71.4729 11.9515 71.7219 12.0758 71.7219 12.4488C71.7219 12.6975 71.5974 13.0291 71.3899 13.5265L68.2355 21.1943C67.7789 22.3134 67.4884 23.6812 67.4884 24.966C67.4884 27.6601 68.443 30.147 70.9333 30.147ZM76.9516 21.8575V21.2772C76.9516 17.091 78.1552 13.485 80.2305 13.485C81.3096 13.485 81.8492 14.314 81.8492 15.7232C81.8492 17.5469 81.2266 19.6193 79.8154 21.8575C79.0683 23.0595 78.2382 23.847 77.7402 23.847C77.2006 23.847 76.9516 22.9766 76.9516 21.8575Z" fill="#F7F7F7"/>
<path d="M97.9528 28.7792C97.4547 28.7792 97.0812 28.6549 96.8322 28.3233C96.5001 27.9917 96.3756 27.37 96.3756 26.5411V24.22C96.3756 21.9404 97.7453 21.0285 99.5715 20.4068L101.149 19.868C101.854 19.6193 102.186 19.5778 102.518 19.5778C103.39 19.5778 104.137 20.0338 104.137 21.5259C104.137 24.8832 100.858 28.7792 97.9528 28.7792ZM92.6402 26.0022C92.6402 27.6187 94.7984 30.147 97.3302 30.147C99.281 30.147 101.19 28.9036 102.643 27.5358C102.933 27.2457 103.182 27.1213 103.431 27.1213C103.722 27.1213 103.93 27.4115 104.096 27.8674C104.552 29.3181 105.548 30.147 107.001 30.147C108.952 30.147 109.989 28.945 109.989 26.8726V24.7174H109.076V26.6654C109.076 28.0332 108.62 28.4891 107.914 28.4891C107.54 28.4891 107.25 28.3648 107.042 28.0746C106.918 27.8674 106.835 27.5358 106.835 27.0799L107.042 18.8318C107.084 17.8785 106.918 16.9252 106.586 16.0548C105.465 13.0705 102.435 10.9153 99.0319 10.9153C95.753 10.9153 92.7647 12.9048 92.7647 15.5989C92.7647 17.0495 93.7193 17.9614 94.9644 17.9614C96.0851 17.9614 97.0397 17.091 97.0397 16.0962C97.0397 14.5627 95.5455 14.3554 95.5455 13.5679C95.5455 12.739 96.8322 11.91 99.0319 11.91C101.398 11.91 104.013 13.1949 104.013 15.9304C104.013 17.2568 103.265 18.0443 102.145 18.4588L98.2848 19.9509C94.0098 21.6088 92.6402 24.5516 92.6402 26.0022Z" fill="#F7F7F7"/>
<path d="M109.152 35.8668H118.283V34.8306H117.121C115.875 34.8306 115.17 33.9602 115.17 32.7168V28.2404C115.17 27.743 115.46 27.4944 115.792 27.4944C116.124 27.4944 116.498 27.8259 116.954 28.2404C117.909 29.1108 119.279 30.147 121.313 30.147C125.256 30.147 128.742 24.7588 128.742 20.5726C128.742 16.3864 125.297 10.9153 121.354 10.9153C119.32 10.9153 117.951 11.9515 116.996 12.8219C116.539 13.2363 116.166 13.5679 115.834 13.5679C115.46 13.5679 115.211 13.3192 115.211 12.8219V11.4126H109.152V12.4488H110.314C111.559 12.4488 112.264 13.0291 112.264 14.5627V32.7168C112.264 33.9602 111.559 34.8306 110.314 34.8306H109.152V35.8668ZM115.045 20.5726C115.045 16.0133 118.158 11.9515 121.271 11.9515C122.973 11.9515 124.965 13.0291 124.965 17.1739V23.9299C124.965 28.0332 122.973 29.1108 121.271 29.1108C118.158 29.1108 115.045 25.1733 115.045 20.5726Z" fill="#F7F7F7"/>
</svg>
