<svg width="29" height="30" viewBox="0 0 29 30" fill="none" xmlns="http://www.w3.org/2000/svg">
<path d="M12.9291 21.684C14.5535 20.0456 13.3903 17.2643 11.1213 17.2643H0.933069C-0.029604 21.6826 2.31179 26.3421 6.60887 28.0585L12.9291 21.684ZM11.4504 28.723C12.2684 28.7306 13.2404 28.7306 14.4064 28.7306C16.2057 28.7306 17.5403 28.7306 18.5559 28.7028C19.5792 28.6748 20.2313 28.6192 20.6827 28.5218C27.0567 27.1462 30.1298 19.7734 26.624 14.2113C26.3757 13.8174 25.9571 13.3089 25.2594 12.5534C24.5668 11.8034 23.6309 10.8436 22.3693 9.5498L14.4064 1.38354L12.6922 3.14152L23.788 14.3326C24.3218 14.8709 24.3218 15.7411 23.788 16.2794L11.4504 28.723ZM12.655 3.17975C12.655 3.17972 12.655 3.17969 12.655 3.17966L12.655 3.17975ZM12.9291 8.92796L9.96498 5.93843L6.44349 9.54985C6.05859 9.94457 5.66761 10.3263 5.28016 10.7046C4.39803 11.5659 3.53416 12.4094 2.80181 13.3477H11.1213C13.3903 13.3477 14.5535 10.5664 12.9291 8.92796ZM9.91813 5.89118L9.91799 5.89103L9.96455 5.84487L9.91798 5.89103C9.91803 5.89108 9.91808 5.89113 9.91813 5.89118Z" fill="#F7F7F7" stroke="#F7F7F7" stroke-width="1.4369"/>
</svg>
