<?xml version="1.0" standalone="no"?>
<!DOCTYPE svg PUBLIC "-//W3C//DTD SVG 20010904//EN"
 "http://www.w3.org/TR/2001/REC-SVG-20010904/DTD/svg10.dtd">
<svg version="1.0" xmlns="http://www.w3.org/2000/svg"
 width="700.000000pt" height="700.000000pt" viewBox="0 0 700.000000 700.000000"
 preserveAspectRatio="xMidYMid meet">
<metadata>
Created by potrace 1.14, written by Peter Selinger 2001-2017
</metadata>
<g transform="translate(0.000000,700.000000) scale(0.100000,-0.100000)"
fill="#000000" stroke="none">
<path d="M2265 6455 c-234 -38 -424 -131 -547 -270 -19 -22 -208 -281 -418
-575 -211 -294 -498 -694 -638 -889 -271 -378 -308 -436 -342 -546 -35 -108
-39 -334 -10 -475 149 -729 912 -1644 1940 -2327 887 -589 1818 -908 2435
-832 239 29 422 108 556 238 102 99 1363 1867 1407 1972 184 443 -56 1100
-656 1796 -813 943 -2086 1713 -3127 1894 -159 27 -471 35 -600 14z m395 -216
c398 -37 822 -171 1310 -415 1036 -518 1985 -1390 2361 -2169 435 -900 -48
-1344 -1160 -1069 -1087 269 -2412 1210 -3048 2164 -275 413 -403 797 -349
1050 51 240 223 389 498 429 40 6 84 13 98 15 53 7 180 5 290 -5z m-1080 -709
c15 -15 20 -33 20 -79 0 -62 -14 -86 -47 -79 -55 10 -58 178 -2 178 5 0 18 -9
29 -20z m50 -282 c5 -13 23 -68 40 -123 59 -189 218 -482 368 -679 178 -235
496 -571 790 -833 122 -110 162 -151 162 -169 0 -31 -28 -46 -57 -31 -44 24
-354 311 -538 498 -345 352 -555 630 -705 935 -62 125 -140 340 -140 385 0 33
7 39 42 39 20 0 31 -7 38 -22z m3429 -2843 c87 -22 111 -35 111 -60 0 -19 -17
-36 -36 -37 -31 -2 -177 33 -201 48 -25 16 -30 43 -11 62 16 16 29 15 137 -13z
m384 -71 c92 -12 170 -15 320 -11 l197 5 6 -25 c11 -41 -11 -51 -141 -63 -126
-12 -350 -1 -485 23 -56 10 -65 15 -68 35 -9 58 -4 59 171 36z"/>
<path d="M3172 5285 c-209 -46 -269 -203 -172 -453 247 -639 1296 -1376 1955
-1373 170 0 258 37 312 128 110 188 -94 601 -476 965 -393 374 -908 658 -1318
728 -132 23 -212 24 -301 5z"/>
</g>
</svg>
