<svg width="83" height="83" viewBox="0 0 83 83" fill="none" xmlns="http://www.w3.org/2000/svg">
<path d="M33.9193 71.5515C22.576 71.5515 10.5161 68.6686 10.5161 63.3234L10.5327 63.3207C10.5216 63.2736 10.5161 63.2128 10.5161 63.1491V38.8606H12.2093L12.2204 63.2321C12.2093 66.4166 21.1263 69.8638 33.9221 69.8638C46.7152 69.8638 55.6321 66.4193 55.6321 63.3262L55.6183 63.163L55.6321 63.0966V38.8634H57.3253V63.2847C57.3253 63.2985 57.3253 63.3124 57.3253 63.3262C57.3198 68.6686 45.2627 71.5515 33.9193 71.5515ZM11.2382 63.2349L11.1248 63.2709L11.3682 63.2515L11.2382 63.2349ZM55.657 62.9389C55.6487 62.9638 55.6377 63.0108 55.6294 63.0744L55.657 62.9389Z" fill="white"/>
<path d="M33.9193 46.9141C22.576 46.9141 10.5161 44.0313 10.5161 38.6861C10.5161 33.3409 22.5732 30.458 33.9193 30.458C45.2654 30.458 57.3198 33.3409 57.3198 38.6861C57.3198 44.0313 45.2627 46.9141 33.9193 46.9141ZM33.9193 32.1484C21.1235 32.1484 12.2093 35.5929 12.2093 38.6861C12.2093 41.7792 21.1263 45.2237 33.9193 45.2237C46.7124 45.2237 55.6294 41.7792 55.6294 38.6861C55.6294 35.5929 46.7124 32.1484 33.9193 32.1484Z" fill="white"/>
<path d="M33.9162 41.5274C40.3032 41.5274 45.4809 40.3321 45.4809 38.8576C45.4809 37.3831 40.3032 36.1877 33.9162 36.1877C27.5292 36.1877 22.3516 37.3831 22.3516 38.8576C22.3516 40.3321 27.5292 41.5274 33.9162 41.5274Z" fill="white"/>
<path d="M52.9979 33.554C43.1431 33.554 32.6685 31.0225 32.6685 26.3302C32.6685 21.6379 43.1431 19.1064 52.9979 19.1064C62.8528 19.1064 73.3274 21.6379 73.3274 26.3302C73.3274 31.0225 62.8556 33.554 52.9979 33.554ZM52.9979 20.7996C42.0143 20.7996 34.3589 23.7157 34.3589 26.3302C34.3589 28.9447 42.0143 31.8608 52.9979 31.8608C63.9816 31.8608 71.6369 28.9447 71.6369 26.3302C71.6369 23.7157 63.9816 20.7996 52.9979 20.7996Z" fill="white"/>
<path d="M52.9978 28.7898C58.5153 28.7898 62.9882 27.7568 62.9882 26.4824C62.9882 25.2081 58.5153 24.175 52.9978 24.175C47.4802 24.175 43.0073 25.2081 43.0073 26.4824C43.0073 27.7568 47.4802 28.7898 52.9978 28.7898Z" fill="white"/>
<path d="M55.6271 54.7855L55.616 38.8108C55.6271 35.5931 46.7129 32.1459 33.917 32.1459L32.827 32.1569L32.6665 31.302V26.4797H34.3597V30.4554C45.0888 30.5246 56.3021 33.164 57.2539 38.0112H57.3064L57.312 38.4788C57.3175 38.5452 57.3175 38.6143 57.3175 38.6835V52.9816C66.1874 52.3149 71.635 49.7225 71.635 47.6115L71.6295 47.4953L71.6488 47.31L71.635 26.4797H73.3282L73.3171 47.6254C73.1262 51.9054 64.7875 54.246 56.5262 54.7329L55.6271 54.7855Z" fill="white"/>
</svg>
