<svg width="35" height="70" viewBox="0 0 35 70" fill="none" xmlns="http://www.w3.org/2000/svg">
<path d="M30.4591 34.1963C32.6725 32.5919 34.1443 30.0198 34.6036 26.9557C35.2953 22.3446 33.6021 17.0665 29.8339 12.0946L28.2818 10.0473L28.3122 12.6057C28.4284 22.7437 26.6024 25.7804 22.4635 28.7597C22.0346 29.0686 21.5311 29.4212 20.9778 29.8093C20.6845 26.6605 20.5711 23.2247 21.4896 20.1962C24.0903 11.6245 20.4742 2.6974 18.2526 1.22413L16.5456 0.0925293L16.9523 2.08513C17.3673 4.11053 16.1333 7.57913 14.7085 11.5971C13.6323 14.6229 12.462 18.0095 11.7067 21.4918C7.22467 17.0009 6.8152 14.7541 7.0144 5.51546L7.0808 2.4842L5.45123 5.05626C-1.6674 16.293 1.28187 22.2544 4.40267 28.5657L4.8315 29.4376C5.58403 30.971 6.89267 32.7914 8.276 34.7184C9.07833 35.8363 9.88897 36.9789 10.6166 38.0913C9.5127 39.2038 8.5167 40.3627 7.68947 41.549C6.09863 39.3596 3.86317 35.7434 2.7316 31.4165L1.885 28.183L1.09097 31.4302C-1.2524 41.0078 0.443564 48.1664 6.25633 53.3105C7.31873 56.4019 9.1973 58.2688 10.7162 59.3293C7.90527 60.3543 6.14567 61.9861 6.14567 63.9022C6.14567 64.2493 6.17057 64.5746 6.2176 64.8807C4.61846 65.1322 3.37347 66.1244 3.37347 67.3599C3.37347 68.7921 4.9643 69.9155 6.99226 69.9155C8.21237 69.9155 9.2803 69.5083 9.936 68.8495C12.2434 69.6067 15.248 69.6121 17.9234 69.6121C23.714 69.6121 29.7011 69.6121 29.7011 63.9022C29.7011 63.6835 29.6734 63.4703 29.6291 63.2599C31.8369 62.1064 32.8744 60.3215 32.4567 58.2934C32.0804 56.4785 29.3359 55.5792 25.9024 56.0302C26.3783 53.7971 26.4751 51.0118 26.1763 47.5159C25.9329 44.6705 25.7254 42.2132 25.2357 39.8789L24.8483 38.4713C26.5554 37.0335 28.3011 35.7653 29.8588 34.6364L30.4591 34.1963ZM16.3049 12.1465C17.3728 9.1426 18.2858 6.5678 18.604 4.44946C20.1063 7.4534 21.7414 13.546 19.8683 19.7151C18.9858 22.6234 18.9719 25.7913 19.1933 28.7679C18.1834 27.6527 17.1072 26.5485 16.0531 25.5809L15.8373 25.3841C14.8275 24.4547 13.9338 23.6347 13.1343 22.8803C13.837 19.1384 15.1401 15.4293 16.3049 12.1465ZM6.35593 28.7051L5.92433 27.8277C3.16597 22.2544 0.750665 17.3699 5.29077 8.6916C5.33503 18.0123 6.96736 19.5129 14.6891 26.6059L14.9049 26.8027C16.3298 28.1119 17.7989 29.6645 19.0549 31.1623C16.825 32.7504 14.2077 34.7129 11.8533 36.8914C11.1561 35.8418 10.4091 34.7785 9.6621 33.7399C8.31473 31.8785 7.0476 30.1127 6.35593 28.7051ZM2.1091 34.9179C3.50627 38.4822 5.42633 41.3522 6.7405 43.0824C5.96583 44.5092 5.4706 45.9579 5.43186 47.4038C5.4042 48.4042 5.45953 49.3199 5.56467 50.1781C2.23083 46.2503 1.0965 41.303 2.1091 34.9179ZM6.9895 68.24C5.83027 68.24 5.0639 67.707 5.0639 67.3571C5.0639 67.0319 5.74173 66.5672 6.75987 66.4989C7.11123 67.1248 7.60647 67.6141 8.19577 68.0131C7.87207 68.1471 7.45707 68.24 6.9895 68.24ZM17.9234 67.9366C10.9486 67.9366 7.83887 67.3517 7.83887 63.8967C7.83887 61.9861 11.9806 59.8569 17.9234 59.8569C23.8662 59.8569 28.0079 61.9861 28.0079 63.8967C28.0079 67.5375 24.7764 67.9366 17.9234 67.9366ZM30.7994 58.6214C31.1204 60.1739 30.0192 61.1634 28.8987 61.7593C28.0715 60.7069 26.6439 59.8241 24.7875 59.2009C25.0282 58.769 25.2329 58.2907 25.4155 57.785C28.4339 57.2137 30.65 57.8971 30.7994 58.6214ZM23.5923 40.2616C24.0488 42.4483 24.2535 44.8591 24.4942 47.6771C24.9396 52.9224 24.4665 56.5359 23.0777 58.728C21.5339 58.3809 19.7964 58.1841 17.9206 58.1841C17.6688 58.1841 17.4226 58.195 17.1736 58.2005C14.8164 49.9868 18.6787 44.0965 23.4373 39.704L23.5923 40.2616ZM28.86 33.2834C22.4967 37.8863 12.0193 45.5151 15.4555 58.3016C14.5674 58.3863 13.7263 58.5203 12.9295 58.6925C10.8905 57.7167 6.9231 54.8631 7.11953 47.4503C7.27723 41.4424 16.778 34.7949 21.8797 31.2225C22.4718 30.8097 23.003 30.4353 23.4567 30.11C27.5873 27.1361 29.726 24.0037 29.9777 15.2817C32.4124 19.2095 33.4554 23.1974 32.9242 26.7125C32.5314 29.331 31.2974 31.5122 29.4521 32.8515L28.86 33.2834Z" fill="white"/>
</svg>
