<svg width="75" height="61" viewBox="0 0 75 61" fill="none" xmlns="http://www.w3.org/2000/svg">
<path d="M74.2659 18.1773L56.3849 9.38755L38.5012 18.1773L38.5869 18.3516L38.5233 18.3211V22.7755L36.4234 21.7435V9.75275L36.4345 9.73339L18.5839 0.95752L0.733398 9.73062L0.744465 9.75552V33.3939L12.5166 39.1818V51.2583L29.9632 59.835L30.085 59.8931L30.3312 60.0425L30.3616 60.0259L30.3921 60.0425L30.6217 59.8986L48.1956 51.2583V46.7265L55.9533 50.539L56.1995 50.6552L56.3545 50.7492L56.3766 50.7382L56.396 50.7465L56.5315 50.6607L74.2022 41.9706V18.3184L74.1939 18.3211L74.2659 18.1773ZM56.3849 11.2744L72.462 19.176L56.3628 27.0887L40.2857 19.1871L56.3849 11.2744ZM30.3561 36.3764L14.3537 28.5108L30.3561 20.6451L46.3585 28.5108L30.3561 36.3764ZM30.3561 18.7583L19.4305 24.1284V19.9784L34.733 12.4558V20.9052L30.3561 18.7583ZM34.5227 10.6768L18.5839 18.5093L2.64517 10.6768L18.5839 2.84162L34.5227 10.6768ZM2.43767 32.3398V12.4586L17.7373 19.9811V24.9611L12.4751 27.548L12.5194 27.6365V37.2949L2.43767 32.3398ZM14.2098 30.3229L29.5095 37.8455V57.724L14.2098 50.2042V30.3229ZM46.5051 50.2042L31.2027 57.7268V37.8455L46.5051 30.3229V50.2042ZM48.1956 27.6365L48.2398 27.548L40.2165 23.6027V21.0352L55.5162 28.5578V48.4363L48.1956 44.8369V27.6365ZM72.509 40.9165L57.2066 48.4391V28.5606L72.509 21.038V40.9165Z" fill="white"/>
</svg>
