<?xml version="1.0" standalone="no"?>
<!DOCTYPE svg PUBLIC "-//W3C//DTD SVG 20010904//EN"
 "http://www.w3.org/TR/2001/REC-SVG-20010904/DTD/svg10.dtd">
<svg version="1.0" xmlns="http://www.w3.org/2000/svg"
 width="568.000000pt" height="568.000000pt" viewBox="0 0 568.000000 568.000000"
 preserveAspectRatio="xMidYMid meet">
<metadata>
Created by potrace 1.14, written by Peter Selinger 2001-2017
</metadata>
<g transform="translate(0.000000,568.000000) scale(0.100000,-0.100000)"
fill="#000000" stroke="none">
<path d="M1786 5380 c-204 -32 -397 -127 -484 -238 -16 -20 -278 -383 -582
-807 -330 -460 -565 -796 -582 -834 -47 -103 -61 -186 -55 -336 6 -143 24
-224 83 -381 91 -244 250 -503 477 -778 127 -154 445 -471 607 -606 857 -713
1878 -1154 2550 -1099 147 12 250 37 357 89 158 77 147 63 767 930 311 434
579 816 595 848 51 102 65 172 64 322 0 117 -5 150 -32 253 -282 1069 -1905
2376 -3256 2623 -105 19 -421 27 -509 14z m454 -207 c607 -86 1380 -477 2060
-1041 161 -134 486 -463 606 -612 181 -227 318 -447 395 -637 132 -321 121
-582 -30 -733 -57 -57 -170 -115 -271 -137 -102 -23 -377 -23 -515 1 -728 123
-1617 616 -2294 1271 -329 319 -558 621 -707 930 -104 218 -138 352 -133 522
4 103 7 114 42 185 115 234 392 316 847 251z m-1038 -645 c5 -57 -4 -78 -33
-78 -25 0 -39 30 -39 84 0 32 5 48 17 55 32 17 51 -4 55 -61z m64 -293 c53
-155 79 -212 163 -354 170 -287 430 -584 819 -935 83 -76 152 -144 152 -150 0
-15 -20 -36 -34 -36 -34 0 -514 459 -675 645 -247 285 -415 560 -497 811 -30
95 -34 117 -24 130 7 8 23 14 34 12 17 -2 28 -26 62 -123z m2982 -2358 c15
-11 16 -43 2 -52 -16 -10 -173 25 -192 43 -22 18 -22 26 -3 45 13 13 24 12 97
-6 46 -11 89 -24 96 -30z m257 -37 c50 -7 169 -10 265 -8 173 3 175 3 178 -19
6 -41 -27 -48 -228 -48 -222 0 -356 17 -365 46 -9 27 13 52 39 45 12 -3 62
-10 111 -16z"/>
<path d="M2589 4380 c-115 -14 -189 -68 -215 -157 -19 -64 -12 -118 27 -226
125 -346 557 -762 1044 -1007 251 -127 442 -182 635 -183 104 -1 120 1 171 25
166 77 168 261 4 533 -74 124 -161 229 -306 370 -421 409 -1009 688 -1360 645z"/>
</g>
</svg>
