<?xml version="1.0" standalone="no"?>
<!DOCTYPE svg PUBLIC "-//W3C//DTD SVG 20010904//EN"
 "http://www.w3.org/TR/2001/REC-SVG-20010904/DTD/svg10.dtd">
<svg version="1.0" xmlns="http://www.w3.org/2000/svg"
 width="512.000000pt" height="512.000000pt" viewBox="0 0 512.000000 512.000000"
 preserveAspectRatio="xMidYMid meet">
<metadata>
Created by potrace 1.14, written by Peter Selinger 2001-2017
</metadata>
<g transform="translate(0.000000,512.000000) scale(0.100000,-0.100000)"
fill="#000000" stroke="none">
<path d="M1630 4784 c-167 -30 -295 -90 -389 -184 -36 -36 -136 -163 -221
-283 -85 -120 -191 -268 -236 -330 -44 -62 -176 -245 -292 -407 -116 -162
-215 -299 -219 -305 -22 -26 -71 -115 -86 -155 -61 -163 -55 -377 15 -585 69
-204 235 -488 408 -695 25 -30 52 -63 60 -73 72 -92 293 -314 435 -436 55 -47
102 -89 105 -92 3 -3 59 -47 125 -97 66 -50 125 -95 130 -99 26 -20 254 -173
259 -173 3 0 47 -26 98 -58 51 -32 131 -77 178 -101 47 -24 90 -47 95 -51 41
-32 432 -191 565 -231 41 -12 82 -24 90 -27 19 -7 20 -7 123 -31 48 -12 111
-24 140 -27 29 -3 72 -10 96 -14 50 -9 341 -6 386 4 173 39 285 92 382 179 30
27 113 132 163 207 8 12 35 50 60 84 25 34 61 84 80 111 19 28 38 55 43 60 8
10 282 393 512 715 73 102 143 203 157 225 30 49 64 141 76 214 10 56 9 232
-1 266 -4 11 -8 31 -11 45 -29 172 -163 458 -309 660 -56 77 -121 164 -127
170 -3 3 -38 43 -77 90 -233 278 -596 594 -948 824 -66 43 -132 87 -147 97
-15 11 -30 19 -33 19 -3 0 -24 12 -48 27 -54 34 -246 137 -317 170 -30 13 -80
36 -110 50 -128 59 -408 160 -495 178 -11 2 -40 9 -65 15 -87 22 -125 30 -165
35 -23 3 -52 8 -65 11 -53 13 -346 11 -420 -2z"/>
</g>
</svg>
