<svg width="194" height="261" viewBox="0 0 194 261" fill="none" xmlns="http://www.w3.org/2000/svg">
<g clip-path="url(#clip0)">
<rect width="194" height="261" rx="10" fill="#2E3348"/>
<g opacity="0.1">
<path d="M105.905 199.667C107.592 193.919 112.977 187.777 125.783 181.821C138.589 175.865 146.806 176.098 156.702 163.153C166.599 150.207 182.621 127.784 186.966 120.537C191.312 113.291 197.967 112.4 201.816 113.636C205.666 114.872 202.712 119.438 202.712 119.438L184.647 147.573L172.692 171.755L166.524 190.665L137.746 206.426L109.232 207.447L106.104 202.436L105.905 199.667Z" fill="#BFBFBF"/>
<path d="M162.155 191.589C163.624 195.695 155.466 202.371 143.93 206.501C132.393 210.632 121.853 210.653 120.381 206.548C118.912 202.442 127.07 195.766 138.606 191.636C150.143 187.506 160.683 187.485 162.155 191.589Z" fill="#7F7F7F"/>
<path d="M199.325 113.188C200.566 113.537 201.73 114.454 202.587 115.03C204.286 116.172 202.227 118.048 200.151 121.486C198.074 124.922 183.611 146.331 176.278 161.724C168.946 177.117 167.295 185.417 161.267 190.382C155.238 195.348 148.432 201.987 127.421 205.069C106.41 208.152 106.063 201.173 105.905 199.667C105.155 202.997 106.032 209.82 116.671 213.917C127.312 218.014 145.857 213.824 158.325 205.532C170.791 197.242 171.292 183.019 172.907 178.36C174.523 173.704 182.563 155.247 189.035 143.769C195.591 132.143 204.063 118.739 205.09 116.901C206.415 114.528 203.057 113.345 199.325 113.188Z" fill="#BFBFBF"/>
</g>
<g opacity="0.1">
<path d="M12.3775 204.921C12.3617 204.97 12.3438 205.02 12.328 205.069C5.5294 226.054 17.0293 248.579 38.0159 255.378C59.0009 262.176 81.5255 250.676 88.3245 229.69C88.3404 229.641 88.3552 229.59 88.371 229.541L12.3775 204.921Z" fill="#BFBFBF"/>
<path d="M48.2211 223.715C69.1791 230.505 87.1019 233.129 88.2528 229.577C89.4037 226.024 73.3468 217.64 52.3888 210.851C31.4308 204.061 13.508 201.436 12.3571 204.989C11.2062 208.541 27.2631 216.925 48.2211 223.715Z" fill="#7F7F7F"/>
</g>
<path d="M29.368 40.288C28.136 40.288 27.048 40.08 26.104 39.664C25.16 39.232 24.416 38.624 23.872 37.84C23.328 37.04 23.048 36.072 23.032 34.936H26.272C26.304 35.72 26.584 36.384 27.112 36.928C27.656 37.456 28.4 37.72 29.344 37.72C30.16 37.72 30.808 37.528 31.288 37.144C31.768 36.744 32.008 36.216 32.008 35.56C32.008 34.872 31.792 34.336 31.36 33.952C30.944 33.568 30.384 33.256 29.68 33.016C28.976 32.776 28.224 32.52 27.424 32.248C26.128 31.8 25.136 31.224 24.448 30.52C23.776 29.816 23.44 28.88 23.44 27.712C23.424 26.72 23.656 25.872 24.136 25.168C24.632 24.448 25.304 23.896 26.152 23.512C27 23.112 27.976 22.912 29.08 22.912C30.2 22.912 31.184 23.112 32.032 23.512C32.896 23.912 33.568 24.472 34.048 25.192C34.544 25.912 34.808 26.768 34.84 27.76H31.552C31.536 27.168 31.304 26.648 30.856 26.2C30.424 25.736 29.816 25.504 29.032 25.504C28.36 25.488 27.792 25.656 27.328 26.008C26.88 26.344 26.656 26.84 26.656 27.496C26.656 28.056 26.832 28.504 27.184 28.84C27.536 29.16 28.016 29.432 28.624 29.656C29.232 29.88 29.928 30.12 30.712 30.376C31.544 30.664 32.304 31 32.992 31.384C33.68 31.768 34.232 32.28 34.648 32.92C35.064 33.544 35.272 34.352 35.272 35.344C35.272 36.224 35.048 37.04 34.6 37.792C34.152 38.544 33.488 39.152 32.608 39.616C31.728 40.064 30.648 40.288 29.368 40.288ZM43.4243 40.288C42.2243 40.288 41.1603 40.032 40.2323 39.52C39.3043 39.008 38.5763 38.288 38.0483 37.36C37.5203 36.432 37.2563 35.36 37.2563 34.144C37.2563 32.912 37.5123 31.816 38.0243 30.856C38.5523 29.896 39.2723 29.152 40.1843 28.624C41.1123 28.08 42.2003 27.808 43.4483 27.808C44.6163 27.808 45.6483 28.064 46.5443 28.576C47.4403 29.088 48.1363 29.792 48.6323 30.688C49.1443 31.568 49.4003 32.552 49.4003 33.64C49.4003 33.816 49.3923 34 49.3763 34.192C49.3763 34.384 49.3683 34.584 49.3523 34.792H40.3043C40.3683 35.72 40.6883 36.448 41.2643 36.976C41.8563 37.504 42.5683 37.768 43.4003 37.768C44.0243 37.768 44.5443 37.632 44.9603 37.36C45.3923 37.072 45.7123 36.704 45.9203 36.256H49.0403C48.8163 37.008 48.4403 37.696 47.9123 38.32C47.4003 38.928 46.7603 39.408 45.9923 39.76C45.2403 40.112 44.3843 40.288 43.4243 40.288ZM43.4483 30.304C42.6963 30.304 42.0323 30.52 41.4563 30.952C40.8803 31.368 40.5123 32.008 40.3523 32.872H46.2803C46.2323 32.088 45.9443 31.464 45.4163 31C44.8883 30.536 44.2323 30.304 43.4483 30.304ZM56.8371 40C55.5891 40 54.5891 39.696 53.8371 39.088C53.0851 38.48 52.7091 37.4 52.7091 35.848V30.664H50.6691V28.096H52.7091L53.0691 24.904H55.7811V28.096H58.9971V30.664H55.7811V35.872C55.7811 36.448 55.9011 36.848 56.1411 37.072C56.3971 37.28 56.8291 37.384 57.4371 37.384H58.9251V40H56.8371ZM65.8587 40.288C64.3707 40.288 63.2187 39.824 62.4027 38.896C61.6027 37.968 61.2027 36.608 61.2027 34.816V28.096H64.2507V34.528C64.2507 35.552 64.4587 36.336 64.8747 36.88C65.2907 37.424 65.9467 37.696 66.8427 37.696C67.6907 37.696 68.3867 37.392 68.9307 36.784C69.4907 36.176 69.7707 35.328 69.7707 34.24V28.096H72.8427V40H70.1307L69.8907 37.984C69.5227 38.688 68.9867 39.248 68.2827 39.664C67.5947 40.08 66.7867 40.288 65.8587 40.288ZM75.7563 45.28V28.096H78.4923L78.8283 29.8C79.2123 29.272 79.7163 28.808 80.3403 28.408C80.9803 28.008 81.8043 27.808 82.8123 27.808C83.9323 27.808 84.9323 28.08 85.8123 28.624C86.6923 29.168 87.3883 29.912 87.9003 30.856C88.4123 31.8 88.6683 32.872 88.6683 34.072C88.6683 35.272 88.4123 36.344 87.9003 37.288C87.3883 38.216 86.6923 38.952 85.8123 39.496C84.9323 40.024 83.9323 40.288 82.8123 40.288C81.9163 40.288 81.1323 40.12 80.4603 39.784C79.7883 39.448 79.2443 38.976 78.8283 38.368V45.28H75.7563ZM82.1643 37.6C83.1403 37.6 83.9483 37.272 84.5883 36.616C85.2283 35.96 85.5483 35.112 85.5483 34.072C85.5483 33.032 85.2283 32.176 84.5883 31.504C83.9483 30.832 83.1403 30.496 82.1643 30.496C81.1723 30.496 80.3563 30.832 79.7163 31.504C79.0923 32.16 78.7803 33.008 78.7803 34.048C78.7803 35.088 79.0923 35.944 79.7163 36.616C80.3563 37.272 81.1723 37.6 82.1643 37.6ZM23.632 68V51.2H26.704V65.6H34.144V68H23.632ZM38.1948 54.248C37.6348 54.248 37.1708 54.08 36.8028 53.744C36.4508 53.408 36.2748 52.984 36.2748 52.472C36.2748 51.96 36.4508 51.544 36.8028 51.224C37.1708 50.888 37.6348 50.72 38.1948 50.72C38.7548 50.72 39.2108 50.888 39.5628 51.224C39.9308 51.544 40.1148 51.96 40.1148 52.472C40.1148 52.984 39.9308 53.408 39.5628 53.744C39.2108 54.08 38.7548 54.248 38.1948 54.248ZM36.6588 68V56.096H39.7308V68H36.6588ZM52.1532 73.28V66.296C51.7692 66.824 51.2572 67.288 50.6172 67.688C49.9932 68.088 49.1772 68.288 48.1692 68.288C47.0492 68.288 46.0492 68.016 45.1692 67.472C44.2892 66.928 43.5932 66.184 43.0812 65.24C42.5692 64.296 42.3132 63.224 42.3132 62.024C42.3132 60.824 42.5692 59.76 43.0812 58.832C43.5932 57.888 44.2892 57.152 45.1692 56.624C46.0492 56.08 47.0492 55.808 48.1692 55.808C49.0652 55.808 49.8492 55.976 50.5212 56.312C51.1932 56.648 51.7372 57.12 52.1532 57.728L52.4892 56.096H55.2252V73.28H52.1532ZM48.8172 65.6C49.8092 65.6 50.6172 65.272 51.2412 64.616C51.8812 63.944 52.2012 63.088 52.2012 62.048C52.2012 61.008 51.8812 60.16 51.2412 59.504C50.6172 58.832 49.8092 58.496 48.8172 58.496C47.8412 58.496 47.0332 58.824 46.3932 59.48C45.7532 60.136 45.4332 60.984 45.4332 62.024C45.4332 63.064 45.7532 63.92 46.3932 64.592C47.0332 65.264 47.8412 65.6 48.8172 65.6ZM62.5774 68.288C61.0894 68.288 59.9374 67.824 59.1214 66.896C58.3214 65.968 57.9214 64.608 57.9214 62.816V56.096H60.9694V62.528C60.9694 63.552 61.1774 64.336 61.5934 64.88C62.0094 65.424 62.6654 65.696 63.5614 65.696C64.4094 65.696 65.1054 65.392 65.6494 64.784C66.2094 64.176 66.4894 63.328 66.4894 62.24V56.096H69.5614V68H66.8494L66.6094 65.984C66.2414 66.688 65.7054 67.248 65.0014 67.664C64.3134 68.08 63.5054 68.288 62.5774 68.288ZM74.131 54.248C73.571 54.248 73.107 54.08 72.739 53.744C72.387 53.408 72.211 52.984 72.211 52.472C72.211 51.96 72.387 51.544 72.739 51.224C73.107 50.888 73.571 50.72 74.131 50.72C74.691 50.72 75.147 50.888 75.499 51.224C75.867 51.544 76.051 51.96 76.051 52.472C76.051 52.984 75.867 53.408 75.499 53.744C75.147 54.08 74.691 54.248 74.131 54.248ZM72.595 68V56.096H75.667V68H72.595ZM84.1054 68.288C82.9854 68.288 81.9854 68.016 81.1054 67.472C80.2254 66.928 79.5294 66.184 79.0174 65.24C78.5054 64.296 78.2494 63.224 78.2494 62.024C78.2494 60.824 78.5054 59.76 79.0174 58.832C79.5294 57.888 80.2254 57.152 81.1054 56.624C81.9854 56.08 82.9854 55.808 84.1054 55.808C85.0014 55.808 85.7854 55.976 86.4574 56.312C87.1294 56.648 87.6734 57.12 88.0894 57.728V50.72H91.1614V68H88.4254L88.0894 66.296C87.7054 66.824 87.1934 67.288 86.5534 67.688C85.9294 68.088 85.1134 68.288 84.1054 68.288ZM84.7534 65.6C85.7454 65.6 86.5534 65.272 87.1774 64.616C87.8174 63.944 88.1374 63.088 88.1374 62.048C88.1374 61.008 87.8174 60.16 87.1774 59.504C86.5534 58.832 85.7454 58.496 84.7534 58.496C83.7774 58.496 82.9694 58.824 82.3294 59.48C81.6894 60.136 81.3694 60.984 81.3694 62.024C81.3694 63.064 81.6894 63.92 82.3294 64.592C82.9694 65.264 83.7774 65.6 84.7534 65.6ZM95.7057 54.248C95.1457 54.248 94.6817 54.08 94.3137 53.744C93.9617 53.408 93.7857 52.984 93.7857 52.472C93.7857 51.96 93.9617 51.544 94.3137 51.224C94.6817 50.888 95.1457 50.72 95.7057 50.72C96.2657 50.72 96.7217 50.888 97.0737 51.224C97.4417 51.544 97.6257 51.96 97.6257 52.472C97.6257 52.984 97.4417 53.408 97.0737 53.744C96.7217 54.08 96.2657 54.248 95.7057 54.248ZM94.1697 68V56.096H97.2417V68H94.1697ZM105.512 68C104.264 68 103.264 67.696 102.512 67.088C101.76 66.48 101.384 65.4 101.384 63.848V58.664H99.3441V56.096H101.384L101.744 52.904H104.456V56.096H107.672V58.664H104.456V63.872C104.456 64.448 104.576 64.848 104.816 65.072C105.072 65.28 105.504 65.384 106.112 65.384H107.6V68H105.512ZM111.558 73.28L114.318 67.208H113.598L108.966 56.096H112.302L115.638 64.472L119.118 56.096H122.382L114.822 73.28H111.558ZM23.632 96V79.2H26.704V93.6H34.144V96H23.632ZM40.6428 96.288C39.6188 96.288 38.7788 96.128 38.1228 95.808C37.4668 95.472 36.9788 95.032 36.6588 94.488C36.3388 93.944 36.1788 93.344 36.1788 92.688C36.1788 91.584 36.6108 90.688 37.4748 90C38.3388 89.312 39.6348 88.968 41.3628 88.968H44.3868V88.68C44.3868 87.864 44.1548 87.264 43.6908 86.88C43.2268 86.496 42.6508 86.304 41.9628 86.304C41.3388 86.304 40.7948 86.456 40.3308 86.76C39.8668 87.048 39.5788 87.48 39.4668 88.056H36.4668C36.5468 87.192 36.8348 86.44 37.3308 85.8C37.8428 85.16 38.4988 84.672 39.2988 84.336C40.0988 83.984 40.9948 83.808 41.9868 83.808C43.6828 83.808 45.0188 84.232 45.9948 85.08C46.9708 85.928 47.4588 87.128 47.4588 88.68V96H44.8428L44.5548 94.08C44.2028 94.72 43.7068 95.248 43.0668 95.664C42.4428 96.08 41.6348 96.288 40.6428 96.288ZM41.3388 93.888C42.2188 93.888 42.8988 93.6 43.3788 93.024C43.8748 92.448 44.1868 91.736 44.3148 90.888H41.6988C40.8828 90.888 40.2988 91.04 39.9468 91.344C39.5948 91.632 39.4188 91.992 39.4188 92.424C39.4188 92.888 39.5948 93.248 39.9468 93.504C40.2988 93.76 40.7628 93.888 41.3388 93.888ZM54.6143 96.288C53.1263 96.288 51.9743 95.824 51.1583 94.896C50.3583 93.968 49.9583 92.608 49.9583 90.816V84.096H53.0063V90.528C53.0063 91.552 53.2143 92.336 53.6303 92.88C54.0463 93.424 54.7023 93.696 55.5983 93.696C56.4463 93.696 57.1423 93.392 57.6863 92.784C58.2463 92.176 58.5263 91.328 58.5263 90.24V84.096H61.5983V96H58.8863L58.6463 93.984C58.2783 94.688 57.7423 95.248 57.0383 95.664C56.3503 96.08 55.5423 96.288 54.6143 96.288ZM64.5119 96V84.096H67.2239L67.4639 86.112C67.8319 85.408 68.3599 84.848 69.0479 84.432C69.7519 84.016 70.5759 83.808 71.5199 83.808C72.9919 83.808 74.1359 84.272 74.9519 85.2C75.7679 86.128 76.1759 87.488 76.1759 89.28V96H73.1039V89.568C73.1039 88.544 72.8959 87.76 72.4799 87.216C72.0639 86.672 71.4159 86.4 70.5359 86.4C69.6719 86.4 68.9599 86.704 68.3999 87.312C67.8559 87.92 67.5839 88.768 67.5839 89.856V96H64.5119ZM84.7054 96.288C83.4894 96.288 82.4174 96.024 81.4894 95.496C80.5614 94.968 79.8254 94.232 79.2814 93.288C78.7534 92.344 78.4894 91.264 78.4894 90.048C78.4894 88.832 78.7534 87.752 79.2814 86.808C79.8254 85.864 80.5614 85.128 81.4894 84.6C82.4174 84.072 83.4894 83.808 84.7054 83.808C86.2254 83.808 87.5054 84.208 88.5454 85.008C89.5854 85.792 90.2494 86.88 90.5374 88.272H87.2974C87.1374 87.696 86.8174 87.248 86.3374 86.928C85.8734 86.592 85.3214 86.424 84.6814 86.424C83.8334 86.424 83.1134 86.744 82.5214 87.384C81.9294 88.024 81.6334 88.912 81.6334 90.048C81.6334 91.184 81.9294 92.072 82.5214 92.712C83.1134 93.352 83.8334 93.672 84.6814 93.672C85.3214 93.672 85.8734 93.512 86.3374 93.192C86.8174 92.872 87.1374 92.416 87.2974 91.824H90.5374C90.2494 93.168 89.5854 94.248 88.5454 95.064C87.5054 95.88 86.2254 96.288 84.7054 96.288ZM93.0241 96V78.72H96.0961V85.92C96.4961 85.264 97.0321 84.752 97.7041 84.384C98.3921 84 99.1761 83.808 100.056 83.808C101.528 83.808 102.664 84.272 103.464 85.2C104.28 86.128 104.688 87.488 104.688 89.28V96H101.64V89.568C101.64 88.544 101.432 87.76 101.016 87.216C100.616 86.672 99.9761 86.4 99.0961 86.4C98.2321 86.4 97.5121 86.704 96.9361 87.312C96.3761 87.92 96.0961 88.768 96.0961 89.856V96H93.0241ZM113.17 96.288C111.97 96.288 110.906 96.032 109.978 95.52C109.05 95.008 108.322 94.288 107.794 93.36C107.266 92.432 107.002 91.36 107.002 90.144C107.002 88.912 107.258 87.816 107.77 86.856C108.298 85.896 109.018 85.152 109.93 84.624C110.858 84.08 111.946 83.808 113.194 83.808C114.362 83.808 115.394 84.064 116.29 84.576C117.186 85.088 117.882 85.792 118.378 86.688C118.89 87.568 119.146 88.552 119.146 89.64C119.146 89.816 119.138 90 119.122 90.192C119.122 90.384 119.114 90.584 119.098 90.792H110.05C110.114 91.72 110.434 92.448 111.01 92.976C111.602 93.504 112.314 93.768 113.146 93.768C113.77 93.768 114.29 93.632 114.706 93.36C115.138 93.072 115.458 92.704 115.666 92.256H118.786C118.562 93.008 118.186 93.696 117.658 94.32C117.146 94.928 116.506 95.408 115.738 95.76C114.986 96.112 114.13 96.288 113.17 96.288ZM113.194 86.304C112.442 86.304 111.778 86.52 111.202 86.952C110.626 87.368 110.258 88.008 110.098 88.872H116.026C115.978 88.088 115.69 87.464 115.162 87C114.634 86.536 113.978 86.304 113.194 86.304ZM121.489 96V84.096H124.225L124.513 86.328C124.945 85.56 125.529 84.952 126.265 84.504C127.017 84.04 127.897 83.808 128.905 83.808V87.048H128.041C127.369 87.048 126.769 87.152 126.241 87.36C125.713 87.568 125.297 87.928 124.993 88.44C124.705 88.952 124.561 89.664 124.561 90.576V96H121.489Z" fill="#BFBFBF"/>
</g>
<defs>
<clipPath id="clip0">
<rect width="194" height="261" fill="white"/>
</clipPath>
</defs>
</svg>
