<svg width="194" height="261" viewBox="0 0 194 261" fill="none" xmlns="http://www.w3.org/2000/svg">
<g clip-path="url(#clip0)">
<rect width="194" height="261" rx="10" fill="#2E3348"/>
<g opacity="0.1" clip-path="url(#clip1)">
<path d="M205.19 171.165L199.663 157.864L185.754 154.116L185.717 154.252L185.697 154.205L183.574 156.626L182.925 155.064L188.64 148.547L188.656 148.542L183.138 135.264L169.255 131.522L169.25 131.541L157.981 144.387L161.62 153.144L155.863 159.707L161.256 172.685L161.294 172.774L161.357 172.973L161.381 172.978L161.39 173.002L161.583 173.033L175.252 176.715L177.413 174.252L179.811 180.022L179.89 180.203L179.929 180.328L179.946 180.332L179.953 180.346L180.068 180.364L193.813 184.065L205.088 171.211L205.082 171.209L205.19 171.165ZM198.763 158.89L203.733 170.848L191.212 167.474L186.242 155.516L198.763 158.89ZM172.652 160.124L167.705 148.221L180.151 151.575L185.098 163.477L172.652 160.124ZM181.05 150.549L172.553 148.259L174.531 146.004L186.433 149.211L182.405 153.802L181.05 150.549ZM187.167 148.144L174.771 144.802L169.843 132.948L182.24 136.288L187.167 148.144ZM159.404 144.621L168.881 133.817L173.61 145.198L171.236 147.905L167.143 146.802L167.125 146.871L162.521 152.12L159.404 144.621ZM166.763 149.137L171.491 160.518L162.015 171.321L157.286 159.941L166.763 149.137ZM174.836 175.336L162.934 172.13L172.412 161.326L184.314 164.532L174.836 175.336ZM186.513 163.878L186.579 163.851L184.1 157.882L185.323 156.487L190.052 167.868L180.576 178.671L178.314 173.225L186.513 163.878ZM193.395 182.685L181.493 179.479L190.969 168.676L202.871 171.882L193.395 182.685Z" fill="white"/>
<path d="M164.547 154.996C164.344 154.818 164.034 154.839 163.856 155.042L159.91 159.54C159.732 159.743 159.752 160.054 159.955 160.232C160.158 160.41 160.468 160.39 160.646 160.187L164.592 155.688C164.77 155.485 164.75 155.175 164.547 154.996Z" fill="white"/>
<path d="M192.684 179.249C192.887 179.427 193.197 179.407 193.375 179.204L197.089 174.97C197.267 174.767 197.247 174.457 197.044 174.279C196.841 174.101 196.531 174.121 196.353 174.324L192.639 178.558C192.461 178.761 192.481 179.071 192.684 179.249Z" fill="white"/>
<path d="M180.54 158.349L178.863 154.313C178.732 154.002 178.376 153.855 178.065 153.983C177.751 154.113 177.603 154.47 177.734 154.781L179.411 158.817C179.45 158.907 179.506 158.982 179.573 159.042C179.743 159.191 179.989 159.238 180.211 159.146C180.523 159.018 180.671 158.661 180.54 158.349Z" fill="white"/>
<path d="M174.295 136.89C174.245 137.077 174.31 137.267 174.445 137.386C174.499 137.433 174.565 137.47 174.64 137.49L179.131 138.7C179.391 138.771 179.66 138.616 179.731 138.356C179.8 138.092 179.645 137.823 179.385 137.755L174.894 136.546C174.633 136.473 174.366 136.63 174.295 136.89Z" fill="white"/>
</g>
<g opacity="0.1">
<path d="M176.01 224.314C176.981 222.583 177.17 220.429 176.545 218.251C175.604 214.972 172.891 211.963 168.906 209.778L167.265 208.879L168.059 210.574C171.206 217.292 170.923 219.861 169.102 223.084C168.913 223.418 168.689 223.804 168.442 224.228C167.296 222.218 166.18 219.963 165.868 217.671C164.984 211.184 159.901 206.319 157.993 206.002L156.527 205.759L157.398 206.965C158.284 208.19 158.522 210.869 158.801 213.972C159.009 216.31 159.265 218.915 159.822 221.461C155.513 219.81 154.563 218.436 151.897 212.223L151.022 210.184L150.729 212.385C149.447 221.999 153.193 225.088 157.158 228.358L157.704 228.811C158.663 229.607 160.076 230.428 161.57 231.298C162.436 231.802 163.316 232.321 164.131 232.844C163.742 233.915 163.437 234.985 163.252 236.023C161.542 235.041 158.976 233.301 156.921 230.757L155.385 228.856L155.846 231.257C157.204 238.338 160.487 242.599 165.87 244.286C167.506 246.028 169.307 246.709 170.628 246.961C169.089 248.485 168.425 250.098 169.005 251.375C169.11 251.606 169.225 251.815 169.349 252.005C168.372 252.651 167.853 253.684 168.228 254.507C168.661 255.461 170.048 255.734 171.383 255.127C172.186 254.762 172.765 254.171 172.997 253.536C174.745 253.35 176.724 252.455 178.485 251.655C182.295 249.922 186.235 248.131 184.506 244.328C184.44 244.182 184.357 244.048 184.264 243.921C185.368 242.493 185.51 240.993 184.621 239.767C183.824 238.671 181.746 238.893 179.623 240.221C179.26 238.591 178.48 236.706 177.225 234.467C176.203 232.645 175.322 231.07 174.293 229.661L173.612 228.84C174.3 227.371 175.065 226.004 175.748 224.786L176.01 224.314ZM160.018 213.86C159.812 211.54 159.633 209.552 159.201 208.046C161.099 209.597 164.02 213.166 164.655 217.836C164.955 220.037 165.905 222.151 166.952 224.068C165.95 223.627 164.907 223.214 163.921 222.884L163.719 222.818C162.773 222.501 161.937 222.222 161.182 221.959C160.512 219.256 160.246 216.396 160.018 213.86ZM158.485 227.867L157.936 227.411C154.433 224.524 151.364 221.993 151.724 214.854C154.576 221.049 156.104 221.561 163.334 223.975L163.535 224.042C164.869 224.488 166.306 225.082 167.586 225.704C166.6 227.429 165.472 229.519 164.582 231.675C163.805 231.184 162.992 230.7 162.186 230.231C160.735 229.394 159.367 228.597 158.485 227.867ZM157.572 233.275C159.571 235.232 161.703 236.569 163.092 237.328C163.014 238.511 163.127 239.624 163.539 240.598C163.824 241.273 164.138 241.866 164.467 242.407C161.083 240.788 158.839 237.832 157.572 233.275ZM170.874 254.012C170.111 254.358 169.445 254.233 169.339 254C169.241 253.783 169.546 253.271 170.195 252.921C170.616 253.232 171.09 253.41 171.599 253.5C171.426 253.686 171.181 253.872 170.874 254.012ZM177.977 250.538C173.387 252.625 171.164 253.166 170.118 250.864C169.539 249.592 171.62 246.934 175.531 245.157C179.442 243.379 182.812 243.558 183.39 244.831C184.493 247.256 182.487 248.488 177.977 250.538ZM183.63 240.482C184.311 241.42 183.886 242.408 183.329 243.14C182.466 242.687 181.26 242.526 179.849 242.666C179.877 242.306 179.867 241.927 179.834 241.535C181.647 240.252 183.312 240.044 183.63 240.482ZM173.328 230.408C174.29 231.728 175.155 233.273 176.167 235.078C178.048 238.438 178.831 240.987 178.581 242.863C177.46 243.093 176.257 243.482 175.022 244.043C174.857 244.118 174.698 244.199 174.536 244.277C170.497 239.511 171.255 234.432 173.057 230.083L173.328 230.408ZM174.681 224.184C171.887 229.154 167.302 237.37 173.436 244.859C172.877 245.181 172.364 245.522 171.892 245.875C170.254 245.835 166.779 245.121 164.664 240.124C162.949 236.075 167.188 228.805 169.463 224.899C169.728 224.447 169.964 224.039 170.164 223.686C171.982 220.47 172.441 217.744 169.966 211.858C172.757 213.746 174.651 216.091 175.366 218.591C175.9 220.453 175.749 222.275 174.94 223.719L174.681 224.184Z" fill="white"/>
</g>
<g opacity="0.1">
<path d="M21.653 270.537C0.904506 265.464 -19.8655 254.797 -17.4751 245.02L-17.4435 245.023C-17.4427 244.932 -17.4256 244.818 -17.3971 244.702L-6.53516 200.274L-3.43806 201.032L-14.3169 245.615C-15.7612 251.435 -0.992517 261.729 22.4128 267.451C45.8131 273.172 63.6639 270.859 65.0471 265.202L65.0948 264.897L65.1498 264.782L75.987 220.456L79.0841 221.213L68.1628 265.883C68.1566 265.908 68.1504 265.933 68.1442 265.959C65.7449 275.728 42.4015 275.609 21.653 270.537ZM-16.1147 245.181L-16.3382 245.196L-15.8842 245.27L-16.1147 245.181ZM65.2659 264.504C65.2396 264.546 65.1983 264.627 65.1547 264.74L65.2659 264.504Z" fill="white"/>
<path d="M32.6711 225.472C11.9226 220.399 -8.84738 209.733 -6.45698 199.956C-4.06658 190.178 19.2768 190.297 40.0304 195.371C60.784 200.445 81.5439 211.109 79.1535 220.886C76.7631 230.664 53.4197 230.545 32.6711 225.472ZM39.2744 198.463C15.8691 192.741 -1.97662 195.055 -3.35988 200.713C-4.74315 206.371 10.0268 216.659 33.4271 222.38C56.8274 228.101 74.6782 225.788 76.0614 220.13C77.4447 214.473 62.6747 204.184 39.2744 198.463Z" fill="white"/>
<path d="M35.076 215.617C46.7587 218.473 56.7639 218.602 57.4233 215.905C58.0827 213.208 49.1466 208.706 37.4639 205.85C25.7812 202.994 15.776 202.865 15.1166 205.562C14.4572 208.259 23.3933 212.761 35.076 215.617Z" fill="white"/>
<path d="M73.5437 209.566C55.5178 205.159 37.4904 195.844 39.5888 187.261C41.6872 178.678 61.9788 178.732 80.0047 183.139C98.0306 187.546 116.058 196.861 113.96 205.444C111.861 214.027 91.5747 213.974 73.5437 209.566ZM79.2475 186.236C59.1569 181.324 43.8501 183.235 42.6809 188.017C41.5116 192.799 54.2103 201.557 74.3009 206.469C94.3915 211.381 109.698 209.47 110.868 204.688C112.037 199.906 99.3381 191.148 79.2475 186.236Z" fill="white"/>
<path d="M75.674 200.852C85.7664 203.32 94.4098 203.43 94.9797 201.099C95.5496 198.769 87.8301 194.879 77.7377 192.411C67.6454 189.944 59.0019 189.833 58.432 192.164C57.8621 194.495 65.5816 198.385 75.674 200.852Z" fill="white"/>
<path d="M68.8561 249.576L75.9799 220.352C77.4391 214.471 62.6754 204.179 39.2701 198.457L37.2712 197.989L37.36 196.354L39.5166 187.533L42.6137 188.29L40.8357 195.563C60.4299 200.487 79.7602 210.33 79.3333 219.621L79.4295 219.645L79.2305 220.503C79.2109 220.627 79.18 220.753 79.1491 220.88L72.7549 247.033C89.2774 249.78 100.401 247.474 101.345 243.613L101.387 243.398L101.505 243.068L110.795 204.96L113.892 205.717L104.416 244.391C102.153 252.134 85.8531 252.686 70.5243 249.882L68.8561 249.576Z" fill="white"/>
</g>
<path d="M27.24 40.288C25.544 40.288 24.088 39.928 22.872 39.208C21.656 38.472 20.72 37.456 20.064 36.16C19.408 34.848 19.08 33.336 19.08 31.624C19.08 29.912 19.408 28.4 20.064 27.088C20.72 25.776 21.656 24.752 22.872 24.016C24.088 23.28 25.544 22.912 27.24 22.912C29.256 22.912 30.904 23.416 32.184 24.424C33.48 25.416 34.288 26.816 34.608 28.624H31.224C31.016 27.712 30.568 27 29.88 26.488C29.208 25.96 28.312 25.696 27.192 25.696C25.64 25.696 24.424 26.224 23.544 27.28C22.664 28.336 22.224 29.784 22.224 31.624C22.224 33.464 22.664 34.912 23.544 35.968C24.424 37.008 25.64 37.528 27.192 37.528C28.312 37.528 29.208 37.288 29.88 36.808C30.568 36.312 31.016 35.632 31.224 34.768H34.608C34.288 36.496 33.48 37.848 32.184 38.824C30.904 39.8 29.256 40.288 27.24 40.288ZM37.0153 40V28.096H39.7513L40.0393 30.328C40.4713 29.56 41.0553 28.952 41.7913 28.504C42.5433 28.04 43.4233 27.808 44.4313 27.808V31.048H43.5673C42.8953 31.048 42.2953 31.152 41.7673 31.36C41.2393 31.568 40.8233 31.928 40.5193 32.44C40.2313 32.952 40.0873 33.664 40.0873 34.576V40H37.0153ZM51.864 40.288C50.664 40.288 49.6 40.032 48.672 39.52C47.744 39.008 47.016 38.288 46.488 37.36C45.96 36.432 45.696 35.36 45.696 34.144C45.696 32.912 45.952 31.816 46.464 30.856C46.992 29.896 47.712 29.152 48.624 28.624C49.552 28.08 50.64 27.808 51.888 27.808C53.056 27.808 54.088 28.064 54.984 28.576C55.88 29.088 56.576 29.792 57.072 30.688C57.584 31.568 57.84 32.552 57.84 33.64C57.84 33.816 57.832 34 57.816 34.192C57.816 34.384 57.808 34.584 57.792 34.792H48.744C48.808 35.72 49.128 36.448 49.704 36.976C50.296 37.504 51.008 37.768 51.84 37.768C52.464 37.768 52.984 37.632 53.4 37.36C53.832 37.072 54.152 36.704 54.36 36.256H57.48C57.256 37.008 56.88 37.696 56.352 38.32C55.84 38.928 55.2 39.408 54.432 39.76C53.68 40.112 52.824 40.288 51.864 40.288ZM51.888 30.304C51.136 30.304 50.472 30.52 49.896 30.952C49.32 31.368 48.952 32.008 48.792 32.872H54.72C54.672 32.088 54.384 31.464 53.856 31C53.328 30.536 52.672 30.304 51.888 30.304ZM64.2877 40.288C63.2637 40.288 62.4237 40.128 61.7677 39.808C61.1117 39.472 60.6237 39.032 60.3037 38.488C59.9837 37.944 59.8237 37.344 59.8237 36.688C59.8237 35.584 60.2557 34.688 61.1197 34C61.9837 33.312 63.2797 32.968 65.0077 32.968H68.0317V32.68C68.0317 31.864 67.7997 31.264 67.3357 30.88C66.8717 30.496 66.2957 30.304 65.6077 30.304C64.9837 30.304 64.4397 30.456 63.9757 30.76C63.5117 31.048 63.2237 31.48 63.1117 32.056H60.1117C60.1917 31.192 60.4797 30.44 60.9757 29.8C61.4877 29.16 62.1437 28.672 62.9437 28.336C63.7437 27.984 64.6397 27.808 65.6317 27.808C67.3277 27.808 68.6637 28.232 69.6397 29.08C70.6157 29.928 71.1037 31.128 71.1037 32.68V40H68.4877L68.1997 38.08C67.8477 38.72 67.3517 39.248 66.7117 39.664C66.0877 40.08 65.2797 40.288 64.2877 40.288ZM64.9837 37.888C65.8637 37.888 66.5437 37.6 67.0237 37.024C67.5197 36.448 67.8317 35.736 67.9597 34.888H65.3437C64.5277 34.888 63.9437 35.04 63.5917 35.344C63.2397 35.632 63.0637 35.992 63.0637 36.424C63.0637 36.888 63.2397 37.248 63.5917 37.504C63.9437 37.76 64.4077 37.888 64.9837 37.888ZM78.9353 40C77.6873 40 76.6873 39.696 75.9353 39.088C75.1833 38.48 74.8073 37.4 74.8073 35.848V30.664H72.7673V28.096H74.8073L75.1673 24.904H77.8793V28.096H81.0953V30.664H77.8793V35.872C77.8793 36.448 77.9993 36.848 78.2393 37.072C78.4953 37.28 78.9273 37.384 79.5353 37.384H81.0233V40H78.9353ZM88.9721 40.288C87.7721 40.288 86.7081 40.032 85.7801 39.52C84.8521 39.008 84.1241 38.288 83.5961 37.36C83.0681 36.432 82.8041 35.36 82.8041 34.144C82.8041 32.912 83.0601 31.816 83.5721 30.856C84.1001 29.896 84.8201 29.152 85.7321 28.624C86.6601 28.08 87.7481 27.808 88.9961 27.808C90.1641 27.808 91.1961 28.064 92.0921 28.576C92.9881 29.088 93.6841 29.792 94.1801 30.688C94.6921 31.568 94.9481 32.552 94.9481 33.64C94.9481 33.816 94.9401 34 94.9241 34.192C94.9241 34.384 94.9161 34.584 94.9001 34.792H85.8521C85.9161 35.72 86.2361 36.448 86.8121 36.976C87.4041 37.504 88.1161 37.768 88.9481 37.768C89.5721 37.768 90.0921 37.632 90.5081 37.36C90.9401 37.072 91.2601 36.704 91.4681 36.256H94.5881C94.3641 37.008 93.9881 37.696 93.4601 38.32C92.9481 38.928 92.3081 39.408 91.5401 39.76C90.7881 40.112 89.9321 40.288 88.9721 40.288ZM88.9961 30.304C88.2441 30.304 87.5801 30.52 87.0041 30.952C86.4281 31.368 86.0601 32.008 85.9001 32.872H91.8281C91.7801 32.088 91.4921 31.464 90.9641 31C90.4361 30.536 89.7801 30.304 88.9961 30.304ZM23.544 68V53.672H18.648V51.2H31.536V53.672H26.616V68H23.544ZM37.0554 68.288C35.9034 68.288 34.8634 68.024 33.9354 67.496C33.0234 66.968 32.2954 66.24 31.7514 65.312C31.2234 64.368 30.9594 63.28 30.9594 62.048C30.9594 60.816 31.2314 59.736 31.7754 58.808C32.3194 57.864 33.0474 57.128 33.9594 56.6C34.8874 56.072 35.9274 55.808 37.0794 55.808C38.2154 55.808 39.2394 56.072 40.1514 56.6C41.0794 57.128 41.8074 57.864 42.3354 58.808C42.8794 59.736 43.1514 60.816 43.1514 62.048C43.1514 63.28 42.8794 64.368 42.3354 65.312C41.8074 66.24 41.0794 66.968 40.1514 67.496C39.2234 68.024 38.1914 68.288 37.0554 68.288ZM37.0554 65.624C37.8554 65.624 38.5514 65.328 39.1434 64.736C39.7354 64.128 40.0314 63.232 40.0314 62.048C40.0314 60.864 39.7354 59.976 39.1434 59.384C38.5514 58.776 37.8634 58.472 37.0794 58.472C36.2634 58.472 35.5594 58.776 34.9674 59.384C34.3914 59.976 34.1034 60.864 34.1034 62.048C34.1034 63.232 34.3914 64.128 34.9674 64.736C35.5594 65.328 36.2554 65.624 37.0554 65.624ZM45.6581 68V50.72H48.7301V60.92L52.9541 56.096H56.6021L51.7301 61.52L57.3941 68H53.5541L48.7301 62.024V68H45.6581ZM63.8584 68.288C62.6584 68.288 61.5944 68.032 60.6664 67.52C59.7384 67.008 59.0104 66.288 58.4824 65.36C57.9544 64.432 57.6904 63.36 57.6904 62.144C57.6904 60.912 57.9464 59.816 58.4584 58.856C58.9864 57.896 59.7064 57.152 60.6184 56.624C61.5464 56.08 62.6344 55.808 63.8824 55.808C65.0504 55.808 66.0824 56.064 66.9784 56.576C67.8744 57.088 68.5704 57.792 69.0664 58.688C69.5784 59.568 69.8344 60.552 69.8344 61.64C69.8344 61.816 69.8264 62 69.8104 62.192C69.8104 62.384 69.8024 62.584 69.7864 62.792H60.7384C60.8024 63.72 61.1224 64.448 61.6984 64.976C62.2904 65.504 63.0024 65.768 63.8344 65.768C64.4584 65.768 64.9784 65.632 65.3944 65.36C65.8264 65.072 66.1464 64.704 66.3544 64.256H69.4744C69.2504 65.008 68.8744 65.696 68.3464 66.32C67.8344 66.928 67.1944 67.408 66.4264 67.76C65.6744 68.112 64.8184 68.288 63.8584 68.288ZM63.8824 58.304C63.1304 58.304 62.4664 58.52 61.8904 58.952C61.3144 59.368 60.9464 60.008 60.7864 60.872H66.7144C66.6664 60.088 66.3784 59.464 65.8504 59C65.3224 58.536 64.6664 58.304 63.8824 58.304ZM72.1781 68V56.096H74.8901L75.1301 58.112C75.4981 57.408 76.0261 56.848 76.7141 56.432C77.4181 56.016 78.2421 55.808 79.1861 55.808C80.6581 55.808 81.8021 56.272 82.6181 57.2C83.4341 58.128 83.8421 59.488 83.8421 61.28V68H80.7701V61.568C80.7701 60.544 80.5621 59.76 80.1461 59.216C79.7301 58.672 79.0821 58.4 78.2021 58.4C77.3381 58.4 76.6261 58.704 76.0661 59.312C75.5221 59.92 75.2501 60.768 75.2501 61.856V68H72.1781Z" fill="#BFBFBF"/>
</g>
<defs>
<clipPath id="clip0">
<rect width="194" height="261" fill="white"/>
</clipPath>
<clipPath id="clip1">
<rect width="60" height="60" fill="white" transform="translate(176.565 118) rotate(41.2563)"/>
</clipPath>
</defs>
</svg>
