<svg width="194" height="261" viewBox="0 0 194 261" fill="none" xmlns="http://www.w3.org/2000/svg">
<g clip-path="url(#clip0)">
<rect width="194" height="261" rx="10" fill="#2E3348"/>
<g opacity="0.1">
<path d="M152.275 131.142C144.624 128.52 142.061 122.257 145.06 113.504C146.53 109.215 153.049 107.548 159.592 109.79C161.559 110.464 163.257 111.497 163.329 111.54L163.757 111.752C165.655 112.718 166.613 113.203 169.749 109.848C171.805 107.647 177.081 101.495 181.734 96.0646C185.639 91.5098 189.324 87.2083 190.488 85.9723C192.114 84.3782 194.056 83.6878 195.842 84.0546C197.214 84.3422 198.309 85.2102 198.794 86.3883C199.677 88.2475 198.986 90.0133 196.391 92.4409C195.689 93.0996 194.454 94.1314 192.747 95.5571C188.084 99.4557 180.277 105.979 173.432 113.245C169.546 117.227 169.395 118.104 169.057 120.376L169.064 120.379C169.041 120.603 169.004 120.828 168.954 121.048L168.937 121.175C168.575 123.432 166.199 127.871 162.248 130.246C159.215 132.067 155.857 132.369 152.275 131.142ZM145.466 118.271C144.911 122.811 146.247 127.483 152.764 129.716C155.907 130.793 158.837 130.537 161.471 128.953C163.092 127.98 164.404 126.604 165.385 125.233C162.536 126.621 158.404 126.77 154.258 125.349C150.036 123.903 146.823 121.174 145.466 118.271ZM159.103 111.218C153.348 109.247 147.689 110.491 146.488 113.993C145.288 117.496 148.995 121.95 154.749 123.922C160.504 125.894 166.163 124.649 167.364 121.147C167.406 121.023 167.444 120.896 167.473 120.767L167.559 120.202C167.931 117.696 168.101 116.552 172.344 112.207C179.239 104.883 187.09 98.3248 191.781 94.4046C193.407 93.0477 194.689 91.975 195.364 91.3456C197.993 88.8856 197.821 87.8513 197.418 87.0039C197.107 86.2509 196.413 85.7209 195.54 85.5365C194.254 85.2706 192.807 85.8178 191.57 87.0313C190.452 88.2232 186.774 92.5116 182.882 97.0524C178.218 102.492 172.933 108.66 170.852 110.883C167.204 114.787 165.482 114.325 163.073 113.101L162.604 112.864C162.525 112.819 160.909 111.837 159.103 111.218Z" fill="white"/>
<path d="M191.325 91.1399C191.141 91.0767 190.968 90.9809 190.819 90.8517C190.564 90.6288 190.033 89.9722 190.598 88.7187C191.186 87.421 192.405 86.3836 193.563 86.1991C194.242 86.0901 194.847 86.2793 195.261 86.7313L195.274 86.7462C195.716 87.2522 195.911 87.8639 195.818 88.4684C195.703 89.2397 195.157 89.9341 194.193 90.5321C193.303 91.0824 192.161 91.4261 191.325 91.1399ZM194.06 87.6939C193.995 87.6715 193.908 87.6677 193.8 87.6855C193.234 87.7759 192.402 88.3852 191.971 89.3379C191.853 89.5998 191.846 89.7433 191.852 89.7769C191.934 89.7815 192.58 89.7549 193.397 89.2477C193.943 88.9106 194.28 88.5437 194.326 88.2437C194.349 88.0825 194.29 87.9135 194.142 87.743C194.121 87.7225 194.095 87.7059 194.06 87.6939Z" fill="white"/>
</g>
<g opacity="0.1">
<path d="M9.94314 269.058C9.20352 269.125 8.44415 269.162 7.665 269.169C-0.702055 269.119 -7.0457 264.377 -9.3163 256.482C-10.0519 253.924 -9.41186 251.794 -7.36264 249.978C-6.66978 249.363 -5.89103 248.78 -4.98754 248.197C-1.05125 245.644 3.38121 245.024 7.61122 244.736C15.9105 244.167 22.23 241.994 27.5671 237.89C30.5946 235.561 33.7287 233.275 36.7616 231.062C38.2208 229.997 39.6822 228.93 41.1356 227.857L41.3719 227.684C42.4582 226.877 43.5837 226.045 45.0068 225.64C47.4097 224.959 50.6483 226.046 51.7851 227.926C52.8554 229.692 52.3667 232.119 50.541 234.111C49.9221 234.786 49.2296 235.432 48.4865 236.032L46.5722 237.581C44.3961 239.346 42.147 241.169 39.858 242.875C33.211 247.827 28.7332 252.816 25.7617 258.575C22.5028 264.89 17.1889 268.408 9.94314 269.058ZM-7.88338 256.078C-5.80428 263.311 0.00979855 267.654 7.66761 267.7C15.6014 267.634 21.0708 264.432 24.436 257.912C27.5135 251.946 32.1311 246.798 38.9635 241.705C41.2298 240.019 43.4672 238.202 45.6295 236.447L47.5485 234.896C48.2346 234.342 48.8706 233.747 49.4383 233.127C50.7944 231.65 51.2233 229.865 50.5087 228.685C49.7197 227.383 47.1453 226.563 45.4171 227.053C44.2561 227.381 43.2888 228.098 42.2644 228.858L42.0283 229.033C40.5724 230.107 39.1088 231.177 37.6475 232.244C34.6238 234.452 31.4966 236.732 28.4828 239.05C22.9011 243.342 16.301 245.604 7.71354 246.203C3.69272 246.48 -0.51594 247.06 -4.17077 249.426C-5.0118 249.969 -5.72851 250.509 -6.36483 251.072C-7.99791 252.514 -8.46553 254.059 -7.88338 256.078Z" fill="white"/>
<path d="M9.09079 260.894C8.5379 260.943 7.97644 260.979 7.40179 261.004C6.91251 261 6.39719 261.005 5.83295 261.01C1.14553 261.05 -6.69769 261.117 -9.24794 256.642L-7.94871 255.92C-5.83021 259.642 1.46574 259.579 5.82585 259.542C6.39979 259.536 6.92502 259.532 7.38257 259.537C14.415 259.234 19.7454 256.961 23.7063 252.585C28.459 247.335 34.4787 243.401 40.3026 239.601C43.1361 237.752 46.0638 235.837 48.7953 233.805L49.6876 234.976C46.9197 237.039 43.9732 238.962 41.1214 240.825C35.3785 244.574 29.4393 248.453 24.8159 253.564C20.8946 257.89 15.74 260.297 9.09079 260.894Z" fill="white"/>
</g>
<g opacity="0.1" clip-path="url(#clip1)">
<path d="M201.952 231.826L154.964 222.975L168.654 172.896L169.078 171.335L157.432 168.627L147.083 221.494L98.7789 212.396L97.7506 216.983L145.526 229.452L137.262 271.666L141.394 272.625L152.688 231.321L199.34 243.496L201.952 231.826ZM159.872 172.397L165.221 173.637L151.891 222.4L150.143 222.07L159.872 172.397ZM145.518 245.721L148.552 230.238L149.674 230.531L145.518 245.721ZM119.99 219.561L198.204 234.291L197.002 239.656L119.99 219.561Z" fill="white"/>
</g>
<path d="M27.368 40.288C26.136 40.288 25.048 40.08 24.104 39.664C23.16 39.232 22.416 38.624 21.872 37.84C21.328 37.04 21.048 36.072 21.032 34.936H24.272C24.304 35.72 24.584 36.384 25.112 36.928C25.656 37.456 26.4 37.72 27.344 37.72C28.16 37.72 28.808 37.528 29.288 37.144C29.768 36.744 30.008 36.216 30.008 35.56C30.008 34.872 29.792 34.336 29.36 33.952C28.944 33.568 28.384 33.256 27.68 33.016C26.976 32.776 26.224 32.52 25.424 32.248C24.128 31.8 23.136 31.224 22.448 30.52C21.776 29.816 21.44 28.88 21.44 27.712C21.424 26.72 21.656 25.872 22.136 25.168C22.632 24.448 23.304 23.896 24.152 23.512C25 23.112 25.976 22.912 27.08 22.912C28.2 22.912 29.184 23.112 30.032 23.512C30.896 23.912 31.568 24.472 32.048 25.192C32.544 25.912 32.808 26.768 32.84 27.76H29.552C29.536 27.168 29.304 26.648 28.856 26.2C28.424 25.736 27.816 25.504 27.032 25.504C26.36 25.488 25.792 25.656 25.328 26.008C24.88 26.344 24.656 26.84 24.656 27.496C24.656 28.056 24.832 28.504 25.184 28.84C25.536 29.16 26.016 29.432 26.624 29.656C27.232 29.88 27.928 30.12 28.712 30.376C29.544 30.664 30.304 31 30.992 31.384C31.68 31.768 32.232 32.28 32.648 32.92C33.064 33.544 33.272 34.352 33.272 35.344C33.272 36.224 33.048 37.04 32.6 37.792C32.152 38.544 31.488 39.152 30.608 39.616C29.728 40.064 28.648 40.288 27.368 40.288ZM41.4243 40.288C40.2243 40.288 39.1603 40.032 38.2323 39.52C37.3043 39.008 36.5763 38.288 36.0483 37.36C35.5203 36.432 35.2563 35.36 35.2563 34.144C35.2563 32.912 35.5123 31.816 36.0243 30.856C36.5523 29.896 37.2723 29.152 38.1843 28.624C39.1123 28.08 40.2003 27.808 41.4483 27.808C42.6163 27.808 43.6483 28.064 44.5443 28.576C45.4403 29.088 46.1363 29.792 46.6323 30.688C47.1443 31.568 47.4003 32.552 47.4003 33.64C47.4003 33.816 47.3923 34 47.3763 34.192C47.3763 34.384 47.3683 34.584 47.3523 34.792H38.3043C38.3683 35.72 38.6883 36.448 39.2643 36.976C39.8563 37.504 40.5683 37.768 41.4003 37.768C42.0243 37.768 42.5443 37.632 42.9603 37.36C43.3923 37.072 43.7123 36.704 43.9203 36.256H47.0403C46.8163 37.008 46.4403 37.696 45.9123 38.32C45.4003 38.928 44.7603 39.408 43.9923 39.76C43.2403 40.112 42.3843 40.288 41.4243 40.288ZM41.4483 30.304C40.6963 30.304 40.0323 30.52 39.4563 30.952C38.8803 31.368 38.5123 32.008 38.3523 32.872H44.2803C44.2323 32.088 43.9443 31.464 43.4163 31C42.8883 30.536 42.2323 30.304 41.4483 30.304ZM54.8371 40C53.5891 40 52.5891 39.696 51.8371 39.088C51.0851 38.48 50.7091 37.4 50.7091 35.848V30.664H48.6691V28.096H50.7091L51.0691 24.904H53.7811V28.096H56.9971V30.664H53.7811V35.872C53.7811 36.448 53.9011 36.848 54.1411 37.072C54.3971 37.28 54.8291 37.384 55.4371 37.384H56.9251V40H54.8371ZM71.4254 40.288C70.1934 40.288 69.0814 40.048 68.0894 39.568C67.0974 39.072 66.3054 38.328 65.7134 37.336C65.1374 36.344 64.8494 35.088 64.8494 33.568V23.2H67.9214V33.592C67.9214 34.904 68.2334 35.88 68.8574 36.52C69.4974 37.16 70.3774 37.48 71.4974 37.48C72.6014 37.48 73.4734 37.16 74.1134 36.52C74.7534 35.88 75.0734 34.904 75.0734 33.592V23.2H78.1454V33.568C78.1454 35.088 77.8414 36.344 77.2334 37.336C76.6254 38.328 75.8094 39.072 74.7854 39.568C73.7774 40.048 72.6574 40.288 71.4254 40.288ZM80.9694 45.28V28.096H83.7054L84.0414 29.8C84.4254 29.272 84.9294 28.808 85.5534 28.408C86.1934 28.008 87.0174 27.808 88.0254 27.808C89.1454 27.808 90.1454 28.08 91.0254 28.624C91.9054 29.168 92.6014 29.912 93.1134 30.856C93.6254 31.8 93.8814 32.872 93.8814 34.072C93.8814 35.272 93.6254 36.344 93.1134 37.288C92.6014 38.216 91.9054 38.952 91.0254 39.496C90.1454 40.024 89.1454 40.288 88.0254 40.288C87.1294 40.288 86.3454 40.12 85.6734 39.784C85.0014 39.448 84.4574 38.976 84.0414 38.368V45.28H80.9694ZM87.3774 37.6C88.3534 37.6 89.1614 37.272 89.8014 36.616C90.4414 35.96 90.7614 35.112 90.7614 34.072C90.7614 33.032 90.4414 32.176 89.8014 31.504C89.1614 30.832 88.3534 30.496 87.3774 30.496C86.3854 30.496 85.5694 30.832 84.9294 31.504C84.3054 32.16 83.9934 33.008 83.9934 34.048C83.9934 35.088 84.3054 35.944 84.9294 36.616C85.5694 37.272 86.3854 37.6 87.3774 37.6ZM20.552 68L26.696 51.2H30.152L36.296 68H33.032L31.688 64.112H25.136L23.768 68H20.552ZM25.976 61.712H30.848L28.4 54.728L25.976 61.712ZM42.3778 68.288C40.8898 68.288 39.7378 67.824 38.9218 66.896C38.1218 65.968 37.7218 64.608 37.7218 62.816V56.096H40.7698V62.528C40.7698 63.552 40.9778 64.336 41.3938 64.88C41.8098 65.424 42.4658 65.696 43.3618 65.696C44.2098 65.696 44.9058 65.392 45.4498 64.784C46.0098 64.176 46.2898 63.328 46.2898 62.24V56.096H49.3618V68H46.6498L46.4098 65.984C46.0418 66.688 45.5058 67.248 44.8018 67.664C44.1138 68.08 43.3058 68.288 42.3778 68.288ZM58.1073 68.288C56.8913 68.288 55.8193 68.024 54.8913 67.496C53.9633 66.968 53.2273 66.232 52.6833 65.288C52.1553 64.344 51.8913 63.264 51.8913 62.048C51.8913 60.832 52.1553 59.752 52.6833 58.808C53.2273 57.864 53.9633 57.128 54.8913 56.6C55.8193 56.072 56.8913 55.808 58.1073 55.808C59.6273 55.808 60.9073 56.208 61.9473 57.008C62.9873 57.792 63.6513 58.88 63.9393 60.272H60.6993C60.5393 59.696 60.2193 59.248 59.7393 58.928C59.2753 58.592 58.7233 58.424 58.0833 58.424C57.2353 58.424 56.5153 58.744 55.9233 59.384C55.3313 60.024 55.0353 60.912 55.0353 62.048C55.0353 63.184 55.3313 64.072 55.9233 64.712C56.5153 65.352 57.2353 65.672 58.0833 65.672C58.7233 65.672 59.2753 65.512 59.7393 65.192C60.2193 64.872 60.5393 64.416 60.6993 63.824H63.9393C63.6513 65.168 62.9873 66.248 61.9473 67.064C60.9073 67.88 59.6273 68.288 58.1073 68.288ZM71.5659 68C70.3179 68 69.3179 67.696 68.5659 67.088C67.8139 66.48 67.4379 65.4 67.4379 63.848V58.664H65.3979V56.096H67.4379L67.7979 52.904H70.5099V56.096H73.7259V58.664H70.5099V63.872C70.5099 64.448 70.6299 64.848 70.8699 65.072C71.1259 65.28 71.5579 65.384 72.1659 65.384H73.6539V68H71.5659ZM77.7794 54.248C77.2194 54.248 76.7554 54.08 76.3874 53.744C76.0354 53.408 75.8594 52.984 75.8594 52.472C75.8594 51.96 76.0354 51.544 76.3874 51.224C76.7554 50.888 77.2194 50.72 77.7794 50.72C78.3394 50.72 78.7954 50.888 79.1474 51.224C79.5154 51.544 79.6994 51.96 79.6994 52.472C79.6994 52.984 79.5154 53.408 79.1474 53.744C78.7954 54.08 78.3394 54.248 77.7794 54.248ZM76.2434 68V56.096H79.3154V68H76.2434ZM87.9939 68.288C86.8419 68.288 85.8019 68.024 84.8739 67.496C83.9619 66.968 83.2339 66.24 82.6899 65.312C82.1619 64.368 81.8979 63.28 81.8979 62.048C81.8979 60.816 82.1699 59.736 82.7139 58.808C83.2579 57.864 83.9859 57.128 84.8979 56.6C85.8259 56.072 86.8659 55.808 88.0179 55.808C89.1539 55.808 90.1779 56.072 91.0899 56.6C92.0179 57.128 92.7459 57.864 93.2739 58.808C93.8179 59.736 94.0899 60.816 94.0899 62.048C94.0899 63.28 93.8179 64.368 93.2739 65.312C92.7459 66.24 92.0179 66.968 91.0899 67.496C90.1619 68.024 89.1299 68.288 87.9939 68.288ZM87.9939 65.624C88.7939 65.624 89.4899 65.328 90.0819 64.736C90.6739 64.128 90.9699 63.232 90.9699 62.048C90.9699 60.864 90.6739 59.976 90.0819 59.384C89.4899 58.776 88.8019 58.472 88.0179 58.472C87.2019 58.472 86.4979 58.776 85.9059 59.384C85.3299 59.976 85.0419 60.864 85.0419 62.048C85.0419 63.232 85.3299 64.128 85.9059 64.736C86.4979 65.328 87.1939 65.624 87.9939 65.624ZM96.5966 68V56.096H99.3086L99.5486 58.112C99.9166 57.408 100.445 56.848 101.133 56.432C101.837 56.016 102.661 55.808 103.605 55.808C105.077 55.808 106.221 56.272 107.037 57.2C107.853 58.128 108.261 59.488 108.261 61.28V68H105.189V61.568C105.189 60.544 104.981 59.76 104.565 59.216C104.149 58.672 103.501 58.4 102.621 58.4C101.757 58.4 101.045 58.704 100.485 59.312C99.9406 59.92 99.6686 60.768 99.6686 61.856V68H96.5966Z" fill="#BFBFBF"/>
</g>
<defs>
<clipPath id="clip0">
<rect width="194" height="261" fill="white"/>
</clipPath>
<clipPath id="clip1">
<rect width="132.496" height="132.496" fill="white" transform="translate(62 182.162) rotate(-18.0994)"/>
</clipPath>
</defs>
</svg>
