<svg width="194" height="261" viewBox="0 0 194 261" fill="none" xmlns="http://www.w3.org/2000/svg">
<g clip-path="url(#clip0)">
<rect width="194" height="261" rx="10" fill="#2E3348"/>
<path d="M28.24 40.288C26.544 40.288 25.088 39.928 23.872 39.208C22.656 38.472 21.72 37.456 21.064 36.16C20.408 34.848 20.08 33.336 20.08 31.624C20.08 29.912 20.408 28.4 21.064 27.088C21.72 25.776 22.656 24.752 23.872 24.016C25.088 23.28 26.544 22.912 28.24 22.912C30.256 22.912 31.904 23.416 33.184 24.424C34.48 25.416 35.288 26.816 35.608 28.624H32.224C32.016 27.712 31.568 27 30.88 26.488C30.208 25.96 29.312 25.696 28.192 25.696C26.64 25.696 25.424 26.224 24.544 27.28C23.664 28.336 23.224 29.784 23.224 31.624C23.224 33.464 23.664 34.912 24.544 35.968C25.424 37.008 26.64 37.528 28.192 37.528C29.312 37.528 30.208 37.288 30.88 36.808C31.568 36.312 32.016 35.632 32.224 34.768H35.608C35.288 36.496 34.48 37.848 33.184 38.824C31.904 39.8 30.256 40.288 28.24 40.288ZM38.0153 40V28.096H40.7513L41.0393 30.328C41.4713 29.56 42.0553 28.952 42.7913 28.504C43.5433 28.04 44.4233 27.808 45.4313 27.808V31.048H44.5673C43.8953 31.048 43.2953 31.152 42.7673 31.36C42.2393 31.568 41.8233 31.928 41.5193 32.44C41.2313 32.952 41.0873 33.664 41.0873 34.576V40H38.0153ZM52.864 40.288C51.664 40.288 50.6 40.032 49.672 39.52C48.744 39.008 48.016 38.288 47.488 37.36C46.96 36.432 46.696 35.36 46.696 34.144C46.696 32.912 46.952 31.816 47.464 30.856C47.992 29.896 48.712 29.152 49.624 28.624C50.552 28.08 51.64 27.808 52.888 27.808C54.056 27.808 55.088 28.064 55.984 28.576C56.88 29.088 57.576 29.792 58.072 30.688C58.584 31.568 58.84 32.552 58.84 33.64C58.84 33.816 58.832 34 58.816 34.192C58.816 34.384 58.808 34.584 58.792 34.792H49.744C49.808 35.72 50.128 36.448 50.704 36.976C51.296 37.504 52.008 37.768 52.84 37.768C53.464 37.768 53.984 37.632 54.4 37.36C54.832 37.072 55.152 36.704 55.36 36.256H58.48C58.256 37.008 57.88 37.696 57.352 38.32C56.84 38.928 56.2 39.408 55.432 39.76C54.68 40.112 53.824 40.288 52.864 40.288ZM52.888 30.304C52.136 30.304 51.472 30.52 50.896 30.952C50.32 31.368 49.952 32.008 49.792 32.872H55.72C55.672 32.088 55.384 31.464 54.856 31C54.328 30.536 53.672 30.304 52.888 30.304ZM65.2877 40.288C64.2637 40.288 63.4237 40.128 62.7677 39.808C62.1117 39.472 61.6237 39.032 61.3037 38.488C60.9837 37.944 60.8237 37.344 60.8237 36.688C60.8237 35.584 61.2557 34.688 62.1197 34C62.9837 33.312 64.2797 32.968 66.0077 32.968H69.0317V32.68C69.0317 31.864 68.7997 31.264 68.3357 30.88C67.8717 30.496 67.2957 30.304 66.6077 30.304C65.9837 30.304 65.4397 30.456 64.9757 30.76C64.5117 31.048 64.2237 31.48 64.1117 32.056H61.1117C61.1917 31.192 61.4797 30.44 61.9757 29.8C62.4877 29.16 63.1437 28.672 63.9437 28.336C64.7437 27.984 65.6397 27.808 66.6317 27.808C68.3277 27.808 69.6637 28.232 70.6397 29.08C71.6157 29.928 72.1037 31.128 72.1037 32.68V40H69.4877L69.1997 38.08C68.8477 38.72 68.3517 39.248 67.7117 39.664C67.0877 40.08 66.2797 40.288 65.2877 40.288ZM65.9837 37.888C66.8637 37.888 67.5437 37.6 68.0237 37.024C68.5197 36.448 68.8317 35.736 68.9597 34.888H66.3437C65.5277 34.888 64.9437 35.04 64.5917 35.344C64.2397 35.632 64.0637 35.992 64.0637 36.424C64.0637 36.888 64.2397 37.248 64.5917 37.504C64.9437 37.76 65.4077 37.888 65.9837 37.888ZM79.9353 40C78.6873 40 77.6873 39.696 76.9353 39.088C76.1833 38.48 75.8073 37.4 75.8073 35.848V30.664H73.7673V28.096H75.8073L76.1673 24.904H78.8793V28.096H82.0953V30.664H78.8793V35.872C78.8793 36.448 78.9993 36.848 79.2393 37.072C79.4953 37.28 79.9273 37.384 80.5353 37.384H82.0233V40H79.9353ZM89.9721 40.288C88.7721 40.288 87.7081 40.032 86.7801 39.52C85.8521 39.008 85.1241 38.288 84.5961 37.36C84.0681 36.432 83.8041 35.36 83.8041 34.144C83.8041 32.912 84.0601 31.816 84.5721 30.856C85.1001 29.896 85.8201 29.152 86.7321 28.624C87.6601 28.08 88.7481 27.808 89.9961 27.808C91.1641 27.808 92.1961 28.064 93.0921 28.576C93.9881 29.088 94.6841 29.792 95.1801 30.688C95.6921 31.568 95.9481 32.552 95.9481 33.64C95.9481 33.816 95.9401 34 95.9241 34.192C95.9241 34.384 95.9161 34.584 95.9001 34.792H86.8521C86.9161 35.72 87.2361 36.448 87.8121 36.976C88.4041 37.504 89.1161 37.768 89.9481 37.768C90.5721 37.768 91.0921 37.632 91.5081 37.36C91.9401 37.072 92.2601 36.704 92.4681 36.256H95.5881C95.3641 37.008 94.9881 37.696 94.4601 38.32C93.9481 38.928 93.3081 39.408 92.5401 39.76C91.7881 40.112 90.9321 40.288 89.9721 40.288ZM89.9961 30.304C89.2441 30.304 88.5801 30.52 88.0041 30.952C87.4281 31.368 87.0601 32.008 86.9001 32.872H92.8281C92.7801 32.088 92.4921 31.464 91.9641 31C91.4361 30.536 90.7801 30.304 89.9961 30.304ZM20.632 68V51.2H26.848C28.192 51.2 29.304 51.424 30.184 51.872C31.064 52.32 31.72 52.936 32.152 53.72C32.584 54.504 32.8 55.384 32.8 56.36C32.8 57.288 32.592 58.144 32.176 58.928C31.76 59.696 31.112 60.32 30.232 60.8C29.352 61.264 28.224 61.496 26.848 61.496H23.704V68H20.632ZM23.704 59H26.656C27.728 59 28.496 58.768 28.96 58.304C29.44 57.824 29.68 57.176 29.68 56.36C29.68 55.528 29.44 54.88 28.96 54.416C28.496 53.936 27.728 53.696 26.656 53.696H23.704V59ZM40.0728 68.288C38.8728 68.288 37.8088 68.032 36.8808 67.52C35.9528 67.008 35.2248 66.288 34.6968 65.36C34.1688 64.432 33.9048 63.36 33.9048 62.144C33.9048 60.912 34.1608 59.816 34.6728 58.856C35.2008 57.896 35.9208 57.152 36.8328 56.624C37.7608 56.08 38.8488 55.808 40.0968 55.808C41.2648 55.808 42.2968 56.064 43.1928 56.576C44.0888 57.088 44.7848 57.792 45.2808 58.688C45.7928 59.568 46.0488 60.552 46.0488 61.64C46.0488 61.816 46.0408 62 46.0248 62.192C46.0248 62.384 46.0168 62.584 46.0008 62.792H36.9528C37.0168 63.72 37.3368 64.448 37.9128 64.976C38.5048 65.504 39.2168 65.768 40.0488 65.768C40.6728 65.768 41.1928 65.632 41.6088 65.36C42.0408 65.072 42.3608 64.704 42.5688 64.256H45.6888C45.4648 65.008 45.0888 65.696 44.5608 66.32C44.0488 66.928 43.4088 67.408 42.6408 67.76C41.8888 68.112 41.0328 68.288 40.0728 68.288ZM40.0968 58.304C39.3448 58.304 38.6808 58.52 38.1048 58.952C37.5288 59.368 37.1608 60.008 37.0008 60.872H42.9288C42.8808 60.088 42.5928 59.464 42.0648 59C41.5368 58.536 40.8808 58.304 40.0968 58.304ZM48.3925 68V56.096H51.1285L51.4165 58.328C51.8485 57.56 52.4325 56.952 53.1685 56.504C53.9205 56.04 54.8005 55.808 55.8085 55.808V59.048H54.9445C54.2725 59.048 53.6725 59.152 53.1445 59.36C52.6165 59.568 52.2005 59.928 51.8965 60.44C51.6085 60.952 51.4645 61.664 51.4645 62.576V68H48.3925ZM57.6681 68V56.096H60.3801L60.6441 57.704C61.0281 57.128 61.5321 56.672 62.1561 56.336C62.7961 55.984 63.5321 55.808 64.3641 55.808C66.2041 55.808 67.5081 56.52 68.2761 57.944C68.7081 57.288 69.2841 56.768 70.0041 56.384C70.7401 56 71.5401 55.808 72.4041 55.808C73.9561 55.808 75.1481 56.272 75.9801 57.2C76.8121 58.128 77.2281 59.488 77.2281 61.28V68H74.1561V61.568C74.1561 60.544 73.9561 59.76 73.5561 59.216C73.1721 58.672 72.5721 58.4 71.7561 58.4C70.9241 58.4 70.2521 58.704 69.7401 59.312C69.2441 59.92 68.9961 60.768 68.9961 61.856V68H65.9241V61.568C65.9241 60.544 65.7241 59.76 65.3241 59.216C64.9241 58.672 64.3081 58.4 63.4761 58.4C62.6601 58.4 61.9961 58.704 61.4841 59.312C60.9881 59.92 60.7401 60.768 60.7401 61.856V68H57.6681ZM81.5607 54.248C81.0007 54.248 80.5367 54.08 80.1687 53.744C79.8167 53.408 79.6407 52.984 79.6407 52.472C79.6407 51.96 79.8167 51.544 80.1687 51.224C80.5367 50.888 81.0007 50.72 81.5607 50.72C82.1207 50.72 82.5767 50.888 82.9287 51.224C83.2967 51.544 83.4807 51.96 83.4807 52.472C83.4807 52.984 83.2967 53.408 82.9287 53.744C82.5767 54.08 82.1207 54.248 81.5607 54.248ZM80.0247 68V56.096H83.0967V68H80.0247ZM90.9831 68.288C89.9271 68.288 88.9991 68.12 88.1991 67.784C87.3991 67.432 86.7591 66.952 86.2791 66.344C85.7991 65.736 85.5111 65.032 85.4151 64.232H88.5111C88.6071 64.696 88.8631 65.096 89.2791 65.432C89.7111 65.752 90.2631 65.912 90.9351 65.912C91.6071 65.912 92.0951 65.776 92.3991 65.504C92.7191 65.232 92.8791 64.92 92.8791 64.568C92.8791 64.056 92.6551 63.712 92.2071 63.536C91.7591 63.344 91.1351 63.16 90.3351 62.984C89.8231 62.872 89.3031 62.736 88.7751 62.576C88.2471 62.416 87.7591 62.216 87.3111 61.976C86.8791 61.72 86.5271 61.4 86.2551 61.016C85.9831 60.616 85.8471 60.128 85.8471 59.552C85.8471 58.496 86.2631 57.608 87.0951 56.888C87.9431 56.168 89.1271 55.808 90.6471 55.808C92.0551 55.808 93.1751 56.136 94.0071 56.792C94.8551 57.448 95.3591 58.352 95.5191 59.504H92.6151C92.4391 58.624 91.7751 58.184 90.6231 58.184C90.0471 58.184 89.5991 58.296 89.2791 58.52C88.9751 58.744 88.8231 59.024 88.8231 59.36C88.8231 59.712 89.0551 59.992 89.5191 60.2C89.9831 60.408 90.5991 60.6 91.3671 60.776C92.1991 60.968 92.9591 61.184 93.6471 61.424C94.3511 61.648 94.9111 61.992 95.3271 62.456C95.7431 62.904 95.9511 63.552 95.9511 64.4C95.9671 65.136 95.7751 65.8 95.3751 66.392C94.9751 66.984 94.3991 67.448 93.6471 67.784C92.8951 68.12 92.0071 68.288 90.9831 68.288ZM103.352 68.288C102.296 68.288 101.368 68.12 100.568 67.784C99.7685 67.432 99.1285 66.952 98.6485 66.344C98.1685 65.736 97.8805 65.032 97.7845 64.232H100.88C100.976 64.696 101.232 65.096 101.648 65.432C102.08 65.752 102.632 65.912 103.304 65.912C103.976 65.912 104.464 65.776 104.768 65.504C105.088 65.232 105.248 64.92 105.248 64.568C105.248 64.056 105.024 63.712 104.576 63.536C104.128 63.344 103.504 63.16 102.704 62.984C102.192 62.872 101.672 62.736 101.144 62.576C100.616 62.416 100.128 62.216 99.6805 61.976C99.2485 61.72 98.8965 61.4 98.6245 61.016C98.3525 60.616 98.2165 60.128 98.2165 59.552C98.2165 58.496 98.6325 57.608 99.4645 56.888C100.312 56.168 101.496 55.808 103.016 55.808C104.424 55.808 105.544 56.136 106.376 56.792C107.224 57.448 107.728 58.352 107.888 59.504H104.984C104.808 58.624 104.144 58.184 102.992 58.184C102.416 58.184 101.968 58.296 101.648 58.52C101.344 58.744 101.192 59.024 101.192 59.36C101.192 59.712 101.424 59.992 101.888 60.2C102.352 60.408 102.968 60.6 103.736 60.776C104.568 60.968 105.328 61.184 106.016 61.424C106.72 61.648 107.28 61.992 107.696 62.456C108.112 62.904 108.32 63.552 108.32 64.4C108.336 65.136 108.144 65.8 107.744 66.392C107.344 66.984 106.768 67.448 106.016 67.784C105.264 68.12 104.376 68.288 103.352 68.288ZM112.458 54.248C111.898 54.248 111.434 54.08 111.066 53.744C110.714 53.408 110.538 52.984 110.538 52.472C110.538 51.96 110.714 51.544 111.066 51.224C111.434 50.888 111.898 50.72 112.458 50.72C113.018 50.72 113.474 50.888 113.826 51.224C114.194 51.544 114.378 51.96 114.378 52.472C114.378 52.984 114.194 53.408 113.826 53.744C113.474 54.08 113.018 54.248 112.458 54.248ZM110.922 68V56.096H113.994V68H110.922ZM122.672 68.288C121.52 68.288 120.48 68.024 119.552 67.496C118.64 66.968 117.912 66.24 117.368 65.312C116.84 64.368 116.576 63.28 116.576 62.048C116.576 60.816 116.848 59.736 117.392 58.808C117.936 57.864 118.664 57.128 119.576 56.6C120.504 56.072 121.544 55.808 122.696 55.808C123.832 55.808 124.856 56.072 125.768 56.6C126.696 57.128 127.424 57.864 127.952 58.808C128.496 59.736 128.768 60.816 128.768 62.048C128.768 63.28 128.496 64.368 127.952 65.312C127.424 66.24 126.696 66.968 125.768 67.496C124.84 68.024 123.808 68.288 122.672 68.288ZM122.672 65.624C123.472 65.624 124.168 65.328 124.76 64.736C125.352 64.128 125.648 63.232 125.648 62.048C125.648 60.864 125.352 59.976 124.76 59.384C124.168 58.776 123.48 58.472 122.696 58.472C121.88 58.472 121.176 58.776 120.584 59.384C120.008 59.976 119.72 60.864 119.72 62.048C119.72 63.232 120.008 64.128 120.584 64.736C121.176 65.328 121.872 65.624 122.672 65.624ZM131.275 68V56.096H133.987L134.227 58.112C134.595 57.408 135.123 56.848 135.811 56.432C136.515 56.016 137.339 55.808 138.283 55.808C139.755 55.808 140.899 56.272 141.715 57.2C142.531 58.128 142.939 59.488 142.939 61.28V68H139.867V61.568C139.867 60.544 139.659 59.76 139.243 59.216C138.827 58.672 138.179 58.4 137.299 58.4C136.435 58.4 135.723 58.704 135.163 59.312C134.619 59.92 134.347 60.768 134.347 61.856V68H131.275ZM20.632 96V79.2H23.704V93.6H31.144V96H20.632ZM35.1948 82.248C34.6348 82.248 34.1708 82.08 33.8028 81.744C33.4508 81.408 33.2748 80.984 33.2748 80.472C33.2748 79.96 33.4508 79.544 33.8028 79.224C34.1708 78.888 34.6348 78.72 35.1948 78.72C35.7548 78.72 36.2108 78.888 36.5628 79.224C36.9308 79.544 37.1148 79.96 37.1148 80.472C37.1148 80.984 36.9308 81.408 36.5628 81.744C36.2108 82.08 35.7548 82.248 35.1948 82.248ZM33.6588 96V84.096H36.7308V96H33.6588ZM44.6172 96.288C43.5612 96.288 42.6332 96.12 41.8332 95.784C41.0332 95.432 40.3932 94.952 39.9132 94.344C39.4332 93.736 39.1452 93.032 39.0492 92.232H42.1452C42.2412 92.696 42.4972 93.096 42.9132 93.432C43.3452 93.752 43.8972 93.912 44.5692 93.912C45.2412 93.912 45.7292 93.776 46.0332 93.504C46.3532 93.232 46.5132 92.92 46.5132 92.568C46.5132 92.056 46.2892 91.712 45.8412 91.536C45.3932 91.344 44.7692 91.16 43.9692 90.984C43.4572 90.872 42.9372 90.736 42.4092 90.576C41.8812 90.416 41.3932 90.216 40.9452 89.976C40.5132 89.72 40.1612 89.4 39.8892 89.016C39.6172 88.616 39.4812 88.128 39.4812 87.552C39.4812 86.496 39.8972 85.608 40.7292 84.888C41.5772 84.168 42.7612 83.808 44.2812 83.808C45.6892 83.808 46.8092 84.136 47.6412 84.792C48.4892 85.448 48.9932 86.352 49.1532 87.504H46.2492C46.0732 86.624 45.4092 86.184 44.2572 86.184C43.6812 86.184 43.2332 86.296 42.9132 86.52C42.6092 86.744 42.4572 87.024 42.4572 87.36C42.4572 87.712 42.6892 87.992 43.1532 88.2C43.6172 88.408 44.2332 88.6 45.0012 88.776C45.8332 88.968 46.5932 89.184 47.2812 89.424C47.9852 89.648 48.5452 89.992 48.9612 90.456C49.3772 90.904 49.5852 91.552 49.5852 92.4C49.6012 93.136 49.4092 93.8 49.0092 94.392C48.6092 94.984 48.0332 95.448 47.2812 95.784C46.5292 96.12 45.6412 96.288 44.6172 96.288ZM56.9956 96C55.7476 96 54.7476 95.696 53.9956 95.088C53.2436 94.48 52.8676 93.4 52.8676 91.848V86.664H50.8276V84.096H52.8676L53.2276 80.904H55.9396V84.096H59.1556V86.664H55.9396V91.872C55.9396 92.448 56.0596 92.848 56.2996 93.072C56.5556 93.28 56.9876 93.384 57.5956 93.384H59.0836V96H56.9956Z" fill="#BFBFBF"/>
<g opacity="0.1">
<path d="M152.483 174.968H152.476C156.313 171.622 158.74 166.698 158.74 161.206C158.74 161.182 158.74 161.158 158.74 161.134H122.223C122.223 161.158 122.223 161.182 122.223 161.206C122.223 166.7 124.653 171.624 128.493 174.972H128.487C131.978 178.594 100.263 240.536 111.372 264.714C111.367 264.742 111.356 264.771 111.356 264.799C111.356 266.96 124.386 268.71 140.46 268.71C156.533 268.71 169.563 266.958 169.563 264.799C169.563 264.797 169.563 264.797 169.563 264.795C180.783 240.676 148.99 178.592 152.483 174.968Z" fill="#BFBFBF"/>
<path d="M128.495 174.972H128.489C129.738 176.267 126.479 185.031 122.288 196.858H158.688C154.497 185.029 151.236 176.263 152.485 174.968H152.478C156.315 171.622 158.742 166.698 158.742 161.206C158.742 161.182 158.742 161.158 158.742 161.134H122.225C122.225 161.158 122.225 161.182 122.225 161.206C122.225 166.7 124.655 171.624 128.495 174.972Z" fill="#BFBFBF"/>
<path d="M140.457 163.617C150.528 163.617 158.692 162.52 158.692 161.167C158.692 159.814 150.528 158.717 140.457 158.717C130.387 158.717 122.223 159.814 122.223 161.167C122.223 162.52 130.387 163.617 140.457 163.617Z" fill="#BFBFBF"/>
</g>
<g opacity="0.1">
<path d="M186.705 119.55L156.583 138.254C156.596 138.275 156.607 138.293 156.62 138.314C159.843 143.504 165.31 146.45 170.987 146.678L173.026 149.962C173.03 149.972 173.033 149.981 173.038 149.99C173.485 150.709 177.625 148.944 182.289 146.048C186.953 143.152 190.372 140.223 189.925 139.504L187.871 136.197C190.184 131.007 189.968 124.8 186.745 119.61C186.729 119.589 186.718 119.57 186.705 119.55Z" fill="#BFBFBF"/>
<path opacity="0.5" d="M172.919 131C181.226 125.841 187.317 120.622 186.522 119.343C185.727 118.063 178.349 121.207 170.042 126.365C161.734 131.524 155.644 136.743 156.439 138.023C157.233 139.302 164.612 136.158 172.919 131Z" fill="#BFBFBF"/>
</g>
<g opacity="0.1">
<path d="M62.6471 243.793L17.5303 224.683C17.5177 224.713 17.5063 224.74 17.4938 224.769C14.3062 232.295 15.4278 240.597 19.7475 247.06L17.7309 251.821C17.7224 251.833 17.715 251.843 17.7093 251.857C17.2676 252.899 22.5712 256.14 29.5568 259.099C36.5424 262.058 42.5604 263.612 43.0021 262.57L45.0335 257.773C52.6812 256.379 59.4246 251.408 62.6122 243.883C62.6231 243.849 62.6345 243.822 62.6471 243.793Z" fill="#BFBFBF"/>
<path opacity="0.6" d="M31.9112 254.073C24.9628 251.13 19.6791 247.882 19.9792 246.752L17.8991 251.663C17.8904 251.676 17.8828 251.686 17.8769 251.7C17.4169 252.786 22.7528 256.082 29.7966 259.065C36.8404 262.049 42.9204 263.588 43.3804 262.502L45.476 257.555C44.8684 258.552 38.8596 257.016 31.9112 254.073Z" fill="#BFBFBF"/>
<path opacity="0.5" d="M38.8433 237.621C51.3895 242.935 62.2238 245.676 63.0425 243.743C63.8611 241.811 54.354 235.936 41.8078 230.622C29.2615 225.308 18.4272 222.567 17.6086 224.499C16.79 226.432 26.2971 232.307 38.8433 237.621Z" fill="#BFBFBF"/>
</g>
</g>
<defs>
<clipPath id="clip0">
<rect width="194" height="261" fill="white"/>
</clipPath>
</defs>
</svg>
