<svg width="24" height="24" viewBox="0 0 24 24" fill="none" xmlns="http://www.w3.org/2000/svg">
<path d="M13.6875 5.21875V1.25C13.6875 0.53125 13.1562 0 12.4688 0H11.5312C10.8438 0 10.3125 0.53125 10.3125 1.25V5.21875C10.3125 5.90625 10.8438 6.46875 11.5312 6.46875H12.4688C13.1562 6.46875 13.6875 5.90625 13.6875 5.21875ZM8.40625 5.96875L5.59375 3.1875C5.125 2.71875 4.3125 2.71875 3.84375 3.1875L3.1875 3.84375C2.71875 4.3125 2.71875 5.125 3.1875 5.59375L5.96875 8.40625C6.4375 8.875 7.28125 8.875 7.75 8.40625L8.40625 7.75C8.875 7.28125 8.875 6.4375 8.40625 5.96875ZM18.0312 8.40625L20.8125 5.59375C21.2812 5.125 21.2812 4.3125 20.8125 3.84375L20.1562 3.1875C19.6875 2.71875 18.875 2.71875 18.4062 3.1875L15.5938 5.96875C15.125 6.4375 15.125 7.28125 15.5938 7.75L16.25 8.40625C16.7188 8.875 17.5625 8.875 18.0312 8.40625ZM1.25 13.6875H5.21875C5.90625 13.6875 6.46875 13.1562 6.46875 12.4688V11.5C6.46875 10.8125 5.90625 10.3125 5.21875 10.3125H1.25C0.53125 10.3125 0 10.8125 0 11.5V12.4688C0 13.1562 0.53125 13.6875 1.25 13.6875ZM18.7812 13.6875H22.75C23.4688 13.6875 24 13.1562 24 12.4688V11.5C24 10.8125 23.4688 10.3125 22.75 10.3125H18.7812C18.0938 10.3125 17.5312 10.8125 17.5312 11.5V12.4688C17.5312 13.1562 18.0938 13.6875 18.7812 13.6875ZM5.59375 20.7812L8.40625 18C8.875 17.5312 8.875 16.7188 8.40625 16.25L7.75 15.5625C7.28125 15.0938 6.4375 15.0938 5.96875 15.5625L3.1875 18.4062C2.71875 18.875 2.71875 19.6875 3.1875 20.1562L3.84375 20.7812C4.3125 21.25 5.125 21.25 5.59375 20.7812ZM20.8125 18.4062L18.0312 15.5625C17.5625 15.0938 16.7188 15.0938 16.25 15.5625L15.5938 16.25C15.125 16.7188 15.125 17.5312 15.5938 18L18.4062 20.7812C18.875 21.25 19.6875 21.25 20.1562 20.7812L20.8125 20.1562C21.2812 19.6875 21.2812 18.875 20.8125 18.4062ZM13.6875 22.75V18.7812C13.6875 18.0938 13.1562 17.5312 12.4688 17.5312H11.5312C10.8438 17.5312 10.3125 18.0938 10.3125 18.7812V22.75C10.3125 23.4688 10.8438 24 11.5312 24H12.4688C13.1562 24 13.6875 23.4688 13.6875 22.75Z" fill="#7F7F7F"/>
</svg>
