<svg xmlns="http://www.w3.org/2000/svg" width="40" height="34" viewBox="0 0 40 34">
  <g id="Group_9968" data-name="Group 9968" transform="translate(-267.311 -52)">
    <path id="Path_2" data-name="Path 2" d="M-454.626,1584.725c-1.206,0-2.412,0-3.619,0a.5.5,0,0,1-.451-.224q-2.345-3.159-4.7-6.309c-.058-.077-.118-.152-.2-.257-.243.206-.469.4-.7.591a14.013,14.013,0,0,1-7.225,3.211c-.207.029-.222.15-.221.308q0,1.161,0,2.323c0,.347-.008.355-.358.355h-2.616c-.345,0-.352-.007-.352-.36,0-.758-.006-1.516,0-2.274,0-.231-.072-.324-.313-.359a13.541,13.541,0,0,1-5.656-2.1c-.7-.462-1.341-1-1.994-1.527-.194-.156-.263-.05-.363.083q-1.292,1.734-2.587,3.467c-.711.953-1.418,1.909-2.14,2.854a.563.563,0,0,1-.375.211c-1.133.016-2.266.01-3.4.009a2.248,2.248,0,0,1-.236-.03c.07-.107.116-.187.171-.26q1.886-2.526,3.774-5.051,2.411-3.233,4.817-6.468,2.712-3.632,5.431-7.259,2.173-2.907,4.341-5.818c.049-.065.092-.134.138-.2h.1q1.184,1.586,2.367,3.172,3.045,4.071,6.092,8.14,2.4,3.2,4.795,6.393,1.963,2.621,3.922,5.244c.513.684,1.035,1.36,1.554,2.04Zm-17.04-17.6-.056.016a1.735,1.735,0,0,0-.019.186q0,5.571,0,11.142c0,.21.05.289.283.249a10.336,10.336,0,0,0,3.979-1.547c.67-.44,1.271-.984,1.9-1.479.163-.127.131-.252.02-.4-.273-.355-.541-.713-.809-1.072l-4.686-6.284C-471.254,1567.671-471.461,1567.4-471.666,1567.13Zm-3.4.063-.073-.031c-.06.072-.124.142-.18.217q-1.768,2.37-3.534,4.74-1.2,1.606-2.4,3.206c-.112.147-.115.252.023.374.232.2.449.427.687.623a11.083,11.083,0,0,0,5.1,2.386c.375.07.381.068.381-.325q0-5.451,0-10.9Z" transform="translate(759.438 -1505.674)" fill="#84d561"/>
  </g>
</svg>