<svg id="eof8kcjrwudp1" xmlns="http://www.w3.org/2000/svg" xmlns:xlink="http://www.w3.org/1999/xlink" viewBox="0 0 512 512" shape-rendering="geometricPrecision" text-rendering="geometricPrecision" width="512" height="512"><style><![CDATA[#eof8kcjrwudp22_to {animation: eof8kcjrwudp22_to__to 3000ms linear infinite normal forwards}@keyframes eof8kcjrwudp22_to__to { 0% {transform: translate(17029.013721px,15606.878284px);animation-timing-function: cubic-bezier(0.190000,1,0.220000,1)} 66.666667% {transform: translate(17270.758266px,15613.086457px)} 100% {transform: translate(17270.758266px,15613.086457px)} }]]></style><defs><linearGradient id="eof8kcjrwudp21-fill" x1="17114.925223" y1="15777.587644" x2="17123.448229" y2="15699.882158" spreadMethod="pad" gradientUnits="userSpaceOnUse"><stop id="eof8kcjrwudp21-fill-0" offset="0%" stop-color="rgb(39,176,230)"/><stop id="eof8kcjrwudp21-fill-1" offset="52%" stop-color="rgb(194,107,179)"/><stop id="eof8kcjrwudp21-fill-2" offset="100%" stop-color="rgb(250,82,160)"/></linearGradient></defs><g id="eof8kcjrwudp2" transform="matrix(1 0 0 1 -20603 -16442.09999999999854)" clip-rule="evenodd"><g id="eof8kcjrwudp3" transform="matrix(0.26666700000000 0 0 0.47407400000000 20603 16442.09999999999854)" clip-rule="evenodd"><rect id="eof8kcjrwudp4" width="1920" height="1080" rx="0" ry="0" clip-rule="evenodd" fill="none" fill-rule="evenodd" stroke="none" stroke-width="1" stroke-linecap="round" stroke-linejoin="round" stroke-miterlimit="1.500000"/><g id="eof8kcjrwudp5" clip-path="url(#eof8kcjrwudp29)" clip-rule="evenodd"><g id="eof8kcjrwudp6"><g id="eof8kcjrwudp7" transform="matrix(5.00316000000000 0 0 2.69906000000000 -103356 -44467)" clip-rule="evenodd"><rect id="eof8kcjrwudp8" display="none" width="383.757000" height="400.139000" rx="0" ry="0" transform="matrix(1 0 0 1 20658.20000000000073 16475)" clip-rule="evenodd" fill="rgb(14,15,35)" fill-rule="evenodd" stroke="none" stroke-width="1" stroke-linecap="round" stroke-linejoin="round" stroke-miterlimit="1.500000"/></g><g id="eof8kcjrwudp9" transform="matrix(6.86762000000000 0.47539700000000 -0.84515000000000 3.86304000000000 -151051 -29554.70000000000073)" clip-rule="evenodd"><path id="eof8kcjrwudp10" display="none" d="M22793.700000,4895.850000C22793.700000,4891.840000,22790.500000,4888.590000,22786.500000,4888.590000C22782.500000,4888.590000,22779.200000,4891.840000,22779.200000,4895.850000L22779.200000,5186.340000C22779.200000,5190.340000,22782.500000,5193.600000,22786.500000,5193.600000C22790.500000,5193.600000,22793.700000,5190.340000,22793.700000,5186.340000L22793.700000,4895.850000Z" clip-rule="evenodd" fill="rgb(14,15,35)" fill-rule="evenodd" stroke="rgb(255,255,255)" stroke-width="3" stroke-linecap="round" stroke-linejoin="round" stroke-miterlimit="1.500000"/></g><g id="eof8kcjrwudp11" transform="matrix(4.37449000000000 0 0 3.12789000000000 -4033.42999999999984 -1948.76999999999998)" clip-rule="evenodd"><g id="eof8kcjrwudp12" transform="matrix(1.53485000000000 0 0 1.20744000000000 -25893.40000000000146 -8083.23999999999978)" clip-rule="evenodd"><path id="eof8kcjrwudp13" d="M17721.100000,7385.280000C17721.100000,7385.280000,17678.500000,7444.660000,17678.500000,7444.660000C17671.800000,7454.090000,17658.800000,7458.630000,17641.900000,7457.240000C17620.100000,7455.440000,17591.200000,7443.920000,17563.500000,7424.050000C17535.800000,7404.170000,17515.600000,7380.490000,17506.800000,7360.440000C17500.100000,7344.900000,17500.200000,7331.180000,17507,7321.740000C17507,7321.740000,17549.500000,7262.360000,17549.500000,7262.360000C17556.300000,7252.930000,17569.300000,7248.390000,17586.100000,7249.780000C17607.900000,7251.580000,17636.900000,7263.110000,17664.600000,7282.980000C17692.300000,7302.850000,17712.500000,7326.530000,17721.200000,7346.580000C17728,7362.120000,17727.800000,7375.850000,17721.100000,7385.280000L17721.100000,7385.280000ZM17560.900000,7270.520000C17565.300000,7264.420000,17574.100000,7262.840000,17585,7263.740000C17604.900000,7265.380000,17631.100000,7276.220000,17656.400000,7294.360000C17681.700000,7312.490000,17700.400000,7333.860000,17708.400000,7352.160000C17712.700000,7362.190000,17714.100000,7371.030000,17709.700000,7377.130000L17715.400000,7381.200000C17715.400000,7381.200000,17709.700000,7377.130000,17709.700000,7377.130000L17667.100000,7436.510000C17662.800000,7442.600000,17654,7444.190000,17643.100000,7443.280000C17623.200000,7441.650000,17596.900000,7430.800000,17571.600000,7412.670000C17546.300000,7394.530000,17527.600000,7373.160000,17519.700000,7354.870000C17515.300000,7344.830000,17514,7335.990000,17518.400000,7329.900000C17518.400000,7329.900000,17560.900000,7270.520000,17560.900000,7270.520000Z" clip-rule="evenodd" fill="rgb(255,255,255)" fill-rule="evenodd" stroke="none" stroke-width="1" stroke-linecap="round" stroke-linejoin="round" stroke-miterlimit="1.500000"/></g><g id="eof8kcjrwudp14" transform="matrix(1.53485000000000 0 0 1.20744000000000 -25885.90000000000146 -8092.73999999999978)" clip-rule="evenodd"><path id="eof8kcjrwudp15" d="M17550.400000,7275.750000C17564.300000,7256.350000,17611.400000,7266.310000,17655.600000,7297.970000C17699.800000,7329.640000,17724.400000,7371.110000,17710.500000,7390.510000C17710.500000,7390.510000,17668,7449.890000,17668,7449.890000C17654.100000,7469.290000,17606.900000,7459.330000,17562.700000,7427.660000C17518.500000,7395.990000,17493.900000,7354.530000,17507.800000,7335.130000C17507.800000,7335.130000,17550.400000,7275.750000,17550.400000,7275.750000Z" clip-rule="evenodd" fill="rgb(255,255,255)" fill-rule="evenodd" stroke="none" stroke-width="1" stroke-linecap="round" stroke-linejoin="round" stroke-miterlimit="1.500000"/></g><g id="eof8kcjrwudp16" transform="matrix(1.58178000000000 0 0 1.24436000000000 -28438.70000000000073 -19162.20000000000073)" clip-rule="evenodd"><path id="eof8kcjrwudp17" d="M18640.600000,15952.100000C18646.600000,15943.700000,18658.200000,15940,18673.200000,15941.200000C18693.900000,15942.900000,18721.300000,15954,18747.700000,15972.800000C18774,15991.700000,18793.300000,16014.200000,18801.500000,16033.200000C18807.500000,16047,18807.700000,16059.200000,18801.700000,16067.600000C18801.700000,16067.600000,18760.500000,16125.200000,18760.500000,16125.200000C18754.500000,16133.600000,18742.800000,16137.300000,18727.900000,16136.100000C18707.200000,16134.300000,18679.700000,16123.300000,18653.400000,16104.400000C18627,16085.600000,18607.800000,16063.100000,18599.500000,16044.100000C18593.500000,16030.300000,18593.300000,16018.100000,18599.300000,16009.700000L18640.600000,15952.100000ZM18796,16063.500000L18796,16063.400000C18800.800000,16056.800000,18799.800000,16047,18795.100000,16036C18787.200000,16017.900000,18768.700000,15996.600000,18743.500000,15978.600000C18718.400000,15960.600000,18692.300000,15949.900000,18672.600000,15948.300000C18660.600000,15947.300000,18651.100000,15949.500000,18646.300000,15956.200000L18646.100000,15956.600000C18641.600000,15963.300000,18642.600000,15972.800000,18647.300000,15983.600000C18655.200000,16001.800000,18673.700000,16023.100000,18698.800000,16041.100000C18723.900000,16059.100000,18750,16069.800000,18769.700000,16071.400000C18781.500000,16072.300000,18790.800000,16070.200000,18795.700000,16063.900000L18796,16063.400000L18796,16063.500000ZM18731.800000,15994.900000C18744.400000,16003.900000,18753.700000,16014.600000,18757.600000,16023.700000C18759.900000,16028.800000,18760.500000,16033.300000,18758.200000,16036.400000C18756,16039.500000,18751.500000,16040.400000,18746,16039.900000C18736.100000,16039.100000,18723.100000,16033.700000,18710.500000,16024.700000C18697.900000,16015.700000,18688.600000,16005.100000,18684.700000,15996C18682.500000,15990.900000,18681.900000,15986.400000,18684.100000,15983.300000C18686.300000,15980.200000,18690.800000,15979.300000,18696.400000,15979.700000C18706.200000,15980.600000,18719.300000,15985.900000,18731.800000,15994.900000Z" clip-rule="evenodd" fill="rgb(14,15,35)" fill-rule="evenodd" stroke="none" stroke-width="1" stroke-linecap="round" stroke-linejoin="round" stroke-miterlimit="1.500000"/><g id="eof8kcjrwudp18" clip-path="url(#eof8kcjrwudp23)" clip-rule="evenodd"><g id="eof8kcjrwudp19"><g id="eof8kcjrwudp20" transform="matrix(1 0 0 -2.37190000000000 1581.65000000000009 53337.69999999999709)" clip-rule="evenodd"><path id="eof8kcjrwudp21" d="M17004.500000,15714.100000C17005.600000,15714.100000,17007.400000,15713,17008.400000,15712.700000C17011.900000,15711.600000,17015.400000,15710.500000,17019,15709.600000C17029.500000,15706.900000,17040.400000,15705.400000,17051.200000,15706.400000C17068.200000,15708,17083.600000,15720.500000,17100.700000,15718.800000C17110.300000,15717.900000,17117.100000,15712.200000,17125.500000,15708.300000C17133.500000,15704.400000,17142.300000,15702.700000,17151.200000,15703.500000C17177.700000,15705.700000,17187.700000,15727.700000,17214.600000,15726.500000C17236.900000,15725.500000,17228.200000,15714.200000,17249.600000,15710.200000C17249.800000,15710.100000,17301.300000,15729.200000,17301.700000,15732.500000C17303.200000,15745.200000,17274.600000,15894.800000,17275.900000,15894.800000L17020.800000,15855.300000L17004.500000,15714.100000Z" clip-rule="evenodd" fill="url(#eof8kcjrwudp21-fill)" fill-rule="evenodd" stroke="none" stroke-width="1" stroke-linecap="round" stroke-linejoin="round" stroke-miterlimit="1.500000"/><g id="eof8kcjrwudp22_to" transform="translate(17029.013721,15606.878284)"><path id="eof8kcjrwudp22" d="M22793.700000,4895.850000C22793.700000,4891.840000,22790.500000,4888.590000,22786.500000,4888.590000C22782.500000,4888.590000,22779.200000,4891.840000,22779.200000,4895.850000L22779.200000,5186.340000C22779.200000,5190.340000,22782.500000,5193.600000,22786.500000,5193.600000C22790.500000,5193.600000,22793.700000,5190.340000,22793.700000,5186.340000L22793.700000,4895.850000Z" transform="rotate(14.701986) scale(1,1.563381) translate(-22786.449219,-5041.094971)" clip-rule="evenodd" fill="rgb(249,249,250)" fill-rule="evenodd" stroke="rgb(255,255,255)" stroke-width="3" stroke-linecap="round" stroke-linejoin="round" stroke-miterlimit="1.500000"/></g></g></g><clipPath id="eof8kcjrwudp23"><path id="eof8kcjrwudp24" d="M18640.600000,15952.100000C18646.600000,15943.700000,18658.200000,15940,18673.200000,15941.200000C18693.900000,15942.900000,18721.300000,15954,18747.700000,15972.800000C18774,15991.700000,18793.300000,16014.200000,18801.500000,16033.200000C18807.500000,16047,18807.700000,16059.200000,18801.700000,16067.600000C18801.700000,16067.600000,18760.500000,16125.200000,18760.500000,16125.200000C18754.500000,16133.600000,18742.800000,16137.300000,18727.900000,16136.100000C18707.200000,16134.300000,18679.700000,16123.300000,18653.400000,16104.400000C18627,16085.600000,18607.800000,16063.100000,18599.500000,16044.100000C18593.500000,16030.300000,18593.300000,16018.100000,18599.300000,16009.700000L18640.600000,15952.100000ZM18796,16063.500000L18796,16063.400000C18800.800000,16056.800000,18799.800000,16047,18795.100000,16036C18787.200000,16017.900000,18768.700000,15996.600000,18743.500000,15978.600000C18718.400000,15960.600000,18692.300000,15949.900000,18672.600000,15948.300000C18660.600000,15947.300000,18651.100000,15949.500000,18646.300000,15956.200000L18646.100000,15956.600000C18641.600000,15963.300000,18642.600000,15972.800000,18647.300000,15983.600000C18655.200000,16001.800000,18673.700000,16023.100000,18698.800000,16041.100000C18723.900000,16059.100000,18750,16069.800000,18769.700000,16071.400000C18781.500000,16072.300000,18790.800000,16070.200000,18795.700000,16063.900000L18796,16063.400000L18796,16063.500000ZM18731.800000,15994.900000C18744.400000,16003.900000,18753.700000,16014.600000,18757.600000,16023.700000C18759.900000,16028.800000,18760.500000,16033.300000,18758.200000,16036.400000C18756,16039.500000,18751.500000,16040.400000,18746,16039.900000C18736.100000,16039.100000,18723.100000,16033.700000,18710.500000,16024.700000C18697.900000,16015.700000,18688.600000,16005.100000,18684.700000,15996C18682.500000,15990.900000,18681.900000,15986.400000,18684.100000,15983.300000C18686.300000,15980.200000,18690.800000,15979.300000,18696.400000,15979.700000C18706.200000,15980.600000,18719.300000,15985.900000,18731.800000,15994.900000Z" clip-rule="evenodd" fill="rgb(0,0,0)" fill-rule="evenodd" stroke="none" stroke-width="1" stroke-linecap="round" stroke-linejoin="round" stroke-miterlimit="1.500000"/></clipPath></g></g><g id="eof8kcjrwudp25" transform="matrix(1.58178000000000 0 0 1.24436000000000 -28393.20000000000073 -19215.70000000000073)" clip-rule="evenodd"><path id="eof8kcjrwudp26" d="M18607.700000,16015.700000C18608.800000,16042,18634.700000,16067.100000,18654.600000,16084.100000C18682.300000,16107.700000,18726.900000,16125.400000,18751.800000,16121.400000" clip-rule="evenodd" fill="none" fill-rule="evenodd" stroke="rgb(255,255,255)" stroke-width="3" stroke-linecap="round" stroke-linejoin="round" stroke-dashoffset="3" stroke-dasharray="6,6,75,75"/></g></g><g id="eof8kcjrwudp27" transform="matrix(6.88701000000000 -0.37633600000000 0.66904300000000 3.87394000000000 -159446 -10070.29999999999927)" clip-rule="evenodd"><path id="eof8kcjrwudp28" display="none" d="M22793.700000,4895.850000C22793.700000,4891.840000,22790.500000,4888.590000,22786.500000,4888.590000C22782.500000,4888.590000,22779.200000,4891.840000,22779.200000,4895.850000L22779.200000,5186.340000C22779.200000,5190.340000,22782.500000,5193.600000,22786.500000,5193.600000C22790.500000,5193.600000,22793.700000,5190.340000,22793.700000,5186.340000L22793.700000,4895.850000Z" clip-rule="evenodd" fill="rgb(14,15,35)" fill-rule="evenodd" stroke="rgb(255,255,255)" stroke-width="3" stroke-linecap="round" stroke-linejoin="round" stroke-miterlimit="1.500000"/></g></g><clipPath id="eof8kcjrwudp29"><rect id="eof8kcjrwudp30" width="1920" height="1080" rx="0" ry="0" clip-rule="evenodd" fill="rgb(0,0,0)" fill-rule="evenodd" stroke="none" stroke-width="1" stroke-linecap="round" stroke-linejoin="round" stroke-miterlimit="1.500000"/></clipPath></g></g></g></svg>