<svg width="45" height="63" viewBox="0 0 45 63" fill="none" xmlns="http://www.w3.org/2000/svg">
<path d="M13.1697 62.4477C4.75357 62.4477 0.118164 57.0787 0.118164 47.3261C0.118164 42.5473 5.97273 38.6577 13.1697 38.6577C15.3334 38.6577 17.3533 39.1075 17.438 39.1257L17.9308 39.1907C20.1253 39.5053 21.2316 39.6613 23.1874 35.2439C24.4681 32.3475 27.5866 24.4097 30.3355 17.4053C32.643 11.5293 34.8195 5.98091 35.5484 4.35071C36.611 2.20571 38.2896 0.853708 40.171 0.609308C41.6186 0.427308 42.9892 0.918708 43.8644 1.92751C45.3608 3.47971 45.2761 5.47651 43.541 8.78371C43.0713 9.68071 42.2038 11.1315 41.0052 13.1361C37.7301 18.6169 32.2451 27.7897 27.9588 37.3733C25.4768 42.6721 25.6231 43.5977 26.0569 45.9793H26.0646C26.1185 46.2107 26.157 46.4473 26.1827 46.6839L26.2083 46.8165C26.6139 49.1903 25.772 54.4293 22.6843 58.1473C20.3127 60.9995 17.1095 62.4477 13.1697 62.4477ZM2.1253 51.9411C3.1109 56.6575 6.00097 60.8591 13.1697 60.8591C16.627 60.8591 19.4246 59.6033 21.4831 57.1229C22.751 55.5993 23.5775 53.7793 24.0806 52.0763C21.7449 54.4345 17.7281 55.9945 13.1671 55.9945C8.524 55.9945 4.44043 54.3721 2.1253 51.9411ZM13.1697 40.2489C6.84027 40.2489 1.68896 43.4235 1.68896 47.3261C1.68896 51.2287 6.84027 54.4033 13.1697 54.4033C19.4991 54.4033 24.6504 51.2287 24.6504 47.3261C24.6504 47.1883 24.6452 47.0479 24.6298 46.9101L24.5246 46.3173C24.0446 43.6913 23.8265 42.4927 26.5369 36.7103C30.854 27.0513 36.3698 17.8291 39.6654 12.3171C40.8075 10.4087 41.7084 8.90071 42.1602 8.04271C43.9183 4.69131 43.3999 3.71891 42.7171 3.01171C42.1576 2.36691 41.2952 2.07571 40.3738 2.19011C39.0186 2.36431 37.7789 3.40431 36.9704 5.03711C36.2722 6.60751 34.0983 12.1403 31.7985 17.9981C29.0419 25.0155 25.9209 32.9715 24.6221 35.8991C22.3481 41.0393 20.4975 41.1667 17.7127 40.7689L17.1711 40.6935C17.0787 40.6753 15.1563 40.2489 13.1697 40.2489Z" fill="#E3E3E3"/>
</svg>
