<svg width="66" height="43" viewBox="0 0 66 43" fill="none" xmlns="http://www.w3.org/2000/svg">
<path d="M19.2493 42.0276C18.4969 42.0276 17.7273 41.9951 16.9405 41.9301C8.50201 41.1001 2.53021 35.5951 0.954007 27.2001C0.443407 24.4801 1.28207 22.3326 3.51441 20.6401C4.26921 20.0676 5.10787 19.5351 6.07234 19.0151C10.2755 16.7351 14.8043 16.5051 19.0988 16.6001C27.5249 16.7826 34.0986 15.1176 39.8558 11.3601C43.1217 9.2276 46.4911 7.1501 49.7521 5.1376C51.3209 4.1701 52.8921 3.2001 54.456 2.2226L54.7101 2.0651C55.8793 1.3301 57.0904 0.572598 58.563 0.285098C61.0494 -0.197402 64.2191 1.2301 65.1959 3.2851C66.1159 5.2151 65.4031 7.6851 63.3804 9.5801C62.6947 10.2226 61.9374 10.8276 61.1333 11.3801L59.0613 12.8076C56.7056 14.4351 54.271 16.1151 51.8068 17.6701C44.651 22.1851 39.6807 26.9401 36.1607 32.6326C32.3004 38.8751 26.6197 42.0276 19.2493 42.0276ZM2.43647 26.9151C3.87947 34.6051 9.35301 39.6476 17.0761 40.4076C25.0879 41.0776 30.8969 38.2676 34.883 31.8226C38.5287 25.9251 43.6545 21.0176 51.0101 16.3751C53.4496 14.8376 55.8719 13.1626 58.2127 11.5451L60.2897 10.1151C61.0321 9.60509 61.7277 9.0476 62.3567 8.4576C63.8589 7.0526 64.4534 5.2426 63.8392 3.9526C63.1609 2.5301 60.6375 1.4401 58.8491 1.7876C57.6479 2.0201 56.6069 2.6726 55.5043 3.3651L55.2503 3.5251C53.6839 4.5026 52.1102 5.4751 50.5389 6.4451C47.2879 8.4526 43.9258 10.5251 40.6747 12.6476C34.6536 16.5776 27.7889 18.3076 19.0692 18.1301C14.9869 18.0426 10.6875 18.2526 6.78521 20.3651C5.88734 20.8501 5.11527 21.3426 4.42214 21.8676C2.64367 23.2101 2.03194 24.7676 2.43647 26.9151Z" fill="#E3E3E3"/>
<path d="M19.1283 33.4851C18.5659 33.4851 17.9961 33.4701 17.414 33.4426C16.9206 33.3926 16.4002 33.3501 15.8304 33.3026C11.0968 32.9076 3.17638 32.2476 1.00818 27.3726L2.38458 26.7451C4.18525 30.8001 11.5532 31.4126 15.9562 31.7801C16.5358 31.8276 17.0662 31.8726 17.5274 31.9201C24.6512 32.2601 30.2357 30.4001 34.6289 26.2326C39.9001 21.2326 46.3307 17.7151 52.5517 14.3176C55.5783 12.6651 58.706 10.9526 61.6463 9.1001L62.4405 10.3976C59.4608 12.2776 56.3133 13.9976 53.267 15.6626C47.1324 19.0151 40.7881 22.4826 35.6599 27.3501C31.3112 31.4701 25.8919 33.4851 19.1283 33.4851Z" fill="#E3E3E3"/>
</svg>
