<svg width="31" height="31" viewBox="0 0 31 31" fill="none" xmlns="http://www.w3.org/2000/svg">
<path d="M29.2383 13.2073C28.7612 12.8555 28.1655 12.4161 28.0872 12.125C28.0023 11.8056 28.3056 11.106 28.5509 10.544C28.9714 9.57893 29.4054 8.57887 28.9229 7.74724C28.4364 6.90487 27.3433 6.78085 26.2879 6.66226C25.6854 6.59485 24.9361 6.51132 24.7123 6.28621C24.4872 6.06111 24.4037 5.31174 24.3362 4.71059C24.2177 3.65524 24.095 2.5635 23.2513 2.07557C22.5181 1.64967 21.4317 2.02167 20.4545 2.44757C19.9154 2.68209 19.352 2.90581 18.8722 2.91124C18.5811 2.83309 18.143 2.23731 17.7899 1.76018C17.1834 0.93537 16.4946 0 15.4999 0C14.5066 0 13.8165 0.93537 13.2086 1.76024C12.8555 2.2387 12.4174 2.83448 12.005 2.92476C11.6411 2.92476 11.0831 2.68215 10.544 2.44763C9.56413 2.02174 8.47643 1.65378 7.74861 2.07563C6.90352 2.56356 6.78089 3.6553 6.66224 4.71198C6.59483 5.31445 6.51131 6.0625 6.28753 6.2876C6.06242 6.51132 5.31305 6.59624 4.7119 6.66232C3.65523 6.78091 2.56211 6.90493 2.07556 7.7473C1.59439 8.57893 2.02837 9.57767 2.44756 10.5441C2.69289 11.1061 2.99747 11.8069 2.91123 12.1264C2.83308 12.4175 2.23869 12.8569 1.76017 13.2087C0.935368 13.8152 0 14.5053 0 15.5C0 16.4947 0.935368 17.1848 1.76162 17.7926C2.23875 18.1444 2.83447 18.5838 2.91269 18.8749C2.9976 19.1944 2.69434 19.8939 2.44901 20.4559C2.02849 21.421 1.59452 22.4211 2.07702 23.2527C2.56356 24.0951 3.65668 24.2191 4.71203 24.3377C5.31451 24.4051 6.06387 24.4886 6.28765 24.7137C6.51276 24.9388 6.59628 25.6882 6.6637 26.2894C6.78228 27.3447 6.90498 28.4364 7.74867 28.9244C8.47782 29.3489 9.56419 28.9783 10.544 28.5524C11.0831 28.3179 11.6371 28.0793 12.1264 28.0887C12.4175 28.1669 12.8555 28.7626 13.2087 29.2398C13.8165 30.0646 14.5053 31 15.5 31C16.4934 31 17.1834 30.0646 17.7913 29.2398C18.1444 28.7613 18.5825 28.1655 18.9949 28.0739C19.3589 28.0739 19.9169 28.3165 20.456 28.551C21.4385 28.9769 22.5235 29.3463 23.2513 28.9244C24.0964 28.4364 24.219 27.3447 24.3377 26.288C24.4051 25.6855 24.4886 24.9375 24.7124 24.7124C24.9375 24.4873 25.6869 24.4038 26.288 24.3364C27.3447 24.2178 28.4378 24.0951 28.9244 23.2514C29.4055 22.4197 28.9716 21.421 28.5524 20.4546C28.307 19.8926 28.0038 19.1917 28.0887 18.8736C28.1669 18.5825 28.7612 18.1431 29.2398 17.7913C30.0646 17.1848 31 16.4947 31 15.5C31 14.5053 30.0645 13.8152 29.2383 13.2073ZM12.1304 18.1956C12.1304 18.4854 11.9444 18.7428 11.6694 18.8345C11.5994 18.8588 11.5279 18.8696 11.4565 18.8696C11.2489 18.8696 11.0468 18.7725 10.9174 18.6L8.08693 14.8261V18.1956C8.08693 18.5676 7.785 18.8696 7.413 18.8696C7.041 18.8696 6.73907 18.5676 6.73907 18.1956V12.8044C6.73907 12.5146 6.92507 12.2572 7.20002 12.1655C7.47365 12.0725 7.77824 12.1682 7.95211 12.4L10.7825 16.1739V12.8044C10.7825 12.4324 11.0845 12.1304 11.4565 12.1304C11.8285 12.1304 12.1304 12.4324 12.1304 12.8044V18.1956ZM16.8478 14.8261C17.2198 14.8261 17.5217 15.128 17.5217 15.5C17.5217 15.872 17.2198 16.1739 16.8478 16.1739H14.8261V17.5217H16.8478C17.2198 17.5217 17.5217 17.8236 17.5217 18.1956C17.5217 18.5676 17.2198 18.8696 16.8478 18.8696H14.1521C13.7801 18.8696 13.4782 18.5676 13.4782 18.1956V12.8044C13.4782 12.4324 13.7801 12.1304 14.1521 12.1304H16.8478C17.2198 12.1304 17.5217 12.4324 17.5217 12.8044C17.5217 13.1764 17.2198 13.4783 16.8478 13.4783H14.8261V14.8261H16.8478ZM25.5884 12.9674L24.2406 18.3587C24.1678 18.6498 23.9117 18.8574 23.6125 18.8682C23.6031 18.8682 23.5936 18.8682 23.5855 18.8682C23.2957 18.8682 23.0383 18.6835 22.9453 18.4072L22.2391 16.2831L21.5315 18.4086C21.4371 18.6917 21.2039 18.8817 20.8656 18.8682C20.5664 18.8574 20.3103 18.6486 20.2376 18.3588L18.8898 12.9675C18.8008 12.6063 19.0191 12.241 19.3803 12.1507C19.7348 12.059 20.1068 12.2788 20.1971 12.6413L20.9829 15.7871L21.5988 13.9393C21.7835 13.3893 22.6946 13.3893 22.8779 13.9393L23.4938 15.7871L24.2796 12.6413C24.3685 12.2787 24.7324 12.0604 25.0963 12.1507C25.4604 12.2409 25.6787 12.6076 25.5884 12.9674Z" fill="url(#paint0_linear)"/>
<defs>
    <linearGradient id="paint0_linear" x1="-2.38462" y1="4.39905e-07" x2="36.2654" y2="9.43834" gradientUnits="userSpaceOnUse">
    <stop stop-color="#0993EC"/>
    <stop offset="1" stop-color="#F338C3"/>
    </linearGradient>
</defs>
</svg>