<svg width="62" height="62" viewBox="0 0 62 62" fill="none" xmlns="http://www.w3.org/2000/svg">
<path d="M30.9997 60.1666C34.8306 60.1716 38.6248 59.4194 42.1641 57.9533C45.7034 56.4872 48.9181 54.3362 51.6234 51.6237C54.3359 48.9184 56.487 45.7037 57.9531 42.1644C59.4192 38.625 60.1713 34.8309 60.1664 30.9999C60.1712 27.169 59.419 23.3749 57.953 19.8356C56.4869 16.2963 54.3358 13.0816 51.6234 10.3762C48.9181 7.66373 45.7034 5.51265 42.1641 4.04657C38.6248 2.58049 34.8306 1.82831 30.9997 1.83328C27.1688 1.82839 23.3746 2.5806 19.8353 4.04668C16.296 5.51276 13.0813 7.6638 10.3759 10.3762C7.66355 13.0816 5.51251 16.2963 4.04644 19.8356C2.58036 23.3749 1.82815 27.169 1.83303 30.9999C1.82807 34.8309 2.58024 38.625 4.04632 42.1644C5.5124 45.7037 7.66349 48.9184 10.3759 51.6237C13.0813 54.3361 16.296 56.4871 19.8353 57.9532C23.3746 59.4193 27.1688 60.1715 30.9997 60.1666Z" fill="url(#paint0_linear)" stroke="#E3E3E3" stroke-width="2" stroke-linejoin="round"/>
<path fill-rule="evenodd" clip-rule="evenodd" d="M30.9993 49.9582C31.9663 49.9582 32.8936 49.5741 33.5773 48.8903C34.2611 48.2066 34.6452 47.2793 34.6452 46.3123C34.6452 45.3454 34.2611 44.4181 33.5773 43.7343C32.8936 43.0506 31.9663 42.6665 30.9993 42.6665C30.0324 42.6665 29.1051 43.0506 28.4214 43.7343C27.7376 44.4181 27.3535 45.3454 27.3535 46.3123C27.3535 47.2793 27.7376 48.2066 28.4214 48.8903C29.1051 49.5741 30.0324 49.9582 30.9993 49.9582Z" fill="white"/>
<path d="M31 13.5V36.8333" stroke="white" stroke-width="2" stroke-linecap="round" stroke-linejoin="round"/>
<defs>
<linearGradient id="paint0_linear" x1="1.83301" y1="1.83325" x2="62.5548" y2="4.43556" gradientUnits="userSpaceOnUse">
<stop stop-color="#A755DD"/>
<stop offset="1" stop-color="#681D99"/>
</linearGradient>
</defs>
</svg>
