<svg width="20" height="21" viewBox="0 0 20 21" fill="none" xmlns="http://www.w3.org/2000/svg">
<path fill-rule="evenodd" clip-rule="evenodd" d="M10 20.0662C15.5228 20.0662 20 15.589 20 10.0662C20 4.54331 15.5228 0.0661621 10 0.0661621C4.47715 0.0661621 0 4.54331 0 10.0662C0 15.589 4.47715 20.0662 10 20.0662ZM5.625 10.0662C6.66053 10.0662 7.5 9.2267 7.5 8.19116C7.5 7.15563 6.66053 6.31616 5.625 6.31616C4.58947 6.31616 3.75 7.15563 3.75 8.19116C3.75 9.2267 4.58947 10.0662 5.625 10.0662ZM16.25 8.19116C16.25 9.2267 15.4105 10.0662 14.375 10.0662C13.3395 10.0662 12.5 9.2267 12.5 8.19116C12.5 7.15563 13.3395 6.31616 14.375 6.31616C15.4105 6.31616 16.25 7.15563 16.25 8.19116ZM6.75095 13.1903C6.40527 12.5927 5.64061 12.3885 5.04304 12.7342C4.44546 13.0798 4.24126 13.8445 4.58694 14.4421C5.66571 16.3069 7.68508 17.5662 10 17.5662C12.315 17.5662 14.3344 16.3069 15.4131 14.4421C15.7588 13.8445 15.5546 13.0798 14.957 12.7342C14.3595 12.3885 13.5948 12.5927 13.2491 13.1903C12.5988 14.3144 11.3865 15.0662 10 15.0662C8.61358 15.0662 7.40123 14.3144 6.75095 13.1903Z" fill="#E8DB31"/>
</svg>
